<?xml version="1.0" encoding="utf-8"?>
<!-- Generator: Adobe Illustrator 17.0.0, SVG Export Plug-In . SVG Version: 6.00 Build 0)  -->
<!DOCTYPE svg PUBLIC "-//W3C//DTD SVG 1.1//EN" "http://www.w3.org/Graphics/SVG/1.1/DTD/svg11.dtd">
<svg version="1.1" id="Layer_1" xmlns="http://www.w3.org/2000/svg" x="0px" y="0px"
	 width="917px" height="659px" viewBox="2 0 917 659" enable-background="new 2 0 917 659" xml:space="preserve">
<g id="Layer_1_1_">
	<rect x="2" fill="#2F2F2F" width="917" height="659"/>
	<line fill="none" stroke="#EEF2F2" stroke-miterlimit="10" x1="57" y1="617.5" x2="363" y2="617.5"/>
	<g>

			<line fill="none" stroke="#EEF2F2" stroke-miterlimit="10" x1="67.5" y1="618" x2="67.5" y2="602"/>
			<line fill="none" stroke="#EEF2F2" stroke-miterlimit="10" x1="218.5" y1="618" x2="218.5" y2="602"/>
			<line fill="none" stroke="#EEF2F2" stroke-miterlimit="10" x1="363.5" y1="618" x2="363.5" y2="602"/>

	</g>
	<g>
		<text transform="matrix(1 0 0 1 45.2637 628.3193)" fill="#EEF2F2" font-family="'Cabin-Regular'" font-size="18.2552">0</text>
		<text transform="matrix(1 0 0 1 12.7153 553.334)" fill="#EEF2F2" font-family="'Cabin-Regular'" font-size="18.2552">1000</text>
		<text transform="matrix(1 0 0 1 9.6304 478.3477)" fill="#EEF2F2" font-family="'Cabin-Regular'" font-size="18.2552">2000</text>
		<text transform="matrix(1 0 0 1 9.2105 403.3613)" fill="#EEF2F2" font-family="'Cabin-Regular'" font-size="18.2552">3000</text>
		<text transform="matrix(1 0 0 1 8.9912 328.3745)" fill="#EEF2F2" font-family="'Cabin-Regular'" font-size="18.2552">4000</text>
		<text transform="matrix(1 0 0 1 9.3203 253.3891)" fill="#EEF2F2" font-family="'Cabin-Regular'" font-size="18.2552">5000</text>
		<text transform="matrix(1 0 0 1 8.8272 178.4033)" fill="#EEF2F2" font-family="'Cabin-Regular'" font-size="18.2552">6000</text>
		<text transform="matrix(1 0 0 1 10.0318 103.4175)" fill="#EEF2F2" font-family="'Cabin-Regular'" font-size="18.2552">7000</text>
	</g>
	<line fill="none" stroke="#EEF2F2" stroke-miterlimit="10" x1="67.5" y1="618" x2="67.5" y2="79"/>
	<g>
			<line fill="none" stroke="#EEF2F2" stroke-miterlimit="10" x1="67" y1="617.5" x2="82" y2="617.5"/>
			<line fill="none" stroke="#EEF2F2" stroke-miterlimit="10" x1="67" y1="543.5" x2="82" y2="543.5"/>
			<line fill="none" stroke="#EEF2F2" stroke-miterlimit="10" x1="67" y1="467.5" x2="82" y2="467.5"/>
			<line fill="none" stroke="#EEF2F2" stroke-miterlimit="10" x1="67" y1="392.5" x2="82" y2="392.5"/>
			<line fill="none" stroke="#EEF2F2" stroke-miterlimit="10" x1="67" y1="318.5" x2="82" y2="318.5"/>
			<line fill="none" stroke="#EEF2F2" stroke-miterlimit="10" x1="67" y1="242.5" x2="82" y2="242.5"/>
			<line fill="none" stroke="#EEF2F2" stroke-miterlimit="10" x1="67" y1="168.5" x2="82" y2="168.5"/>
			<line fill="none" stroke="#EEF2F2" stroke-miterlimit="10" x1="67" y1="92.5" x2="82" y2="92.5"/>
	</g>
	<polygon fill="#455565" stroke="#2C3E50" stroke-miterlimit="10" points="232.129,332.5 337.92,332.5 337.92,332.5"/>
	<g>
		<polygon fill="#BCC2C6" stroke="#2C3E50" stroke-miterlimit="10" points="232.129,332.5 337.92,332.5 337.92,332.5"/>
	</g>
	<g>
		<rect x="232.524" y="332.5" fill="#E57D22" stroke="#2C3E50" stroke-miterlimit="10" width="105" height="1"/>
	</g>
	<g>
		<polygon fill="#F0C30F" stroke="#2C3E50" stroke-miterlimit="10" points="232.129,333.5 337.92,333.5 337.92,333.5"/>
	</g>
	<g>
		<rect x="232.524" y="333.5" fill="#8D44AC" stroke="#2C3E50" stroke-miterlimit="10" width="105" height="1"/>
	</g>
	<g>
		<rect x="232.524" y="334.5" fill="#2C3E50" stroke="#2C3E50" stroke-miterlimit="10" width="105" height="1"/>
	</g>
	<g>
		<rect x="232.524" y="335.5" fill="#27AD60" stroke="#2C3E50" stroke-miterlimit="10" width="105" height="2"/>
	</g>
	<g>
		<rect x="232.524" y="337.5" fill="#BF392B" stroke="#2C3E50" stroke-miterlimit="10" width="105" height="1"/>
	</g>
	<g>
		<rect x="232.524" y="338.5" fill="#455565" stroke="#2C3E50" stroke-miterlimit="10" width="105" height="2"/>
	</g>
	<g>
		<rect x="232.524" y="340.5" fill="#BCC2C6" stroke="#2C3E50" stroke-miterlimit="10" width="105" height="3"/>
	</g>
	<g>
		<rect x="232.524" y="343.5" fill="#E57D22" stroke="#2C3E50" stroke-miterlimit="10" width="105" height="4"/>
	</g>
	<g>
		<rect x="232.524" y="347.5" fill="#F0C30F" stroke="#2C3E50" stroke-miterlimit="10" width="105" height="7"/>
	</g>
	<g>
		<rect x="232.524" y="354.5" fill="#8D44AC" stroke="#2C3E50" stroke-miterlimit="10" width="105" height="7"/>
	</g>
	<g>
		<rect x="232.524" y="361.5" fill="#2C3E50" stroke="#2C3E50" stroke-miterlimit="10" width="105" height="8"/>
	</g>
	<g>
		<rect x="232.524" y="369.5" fill="#27AD60" stroke="#2C3E50" stroke-miterlimit="10" width="105" height="10"/>
	</g>
	<g>
		<rect x="232.524" y="379.5" fill="#BF392B" stroke="#2C3E50" stroke-miterlimit="10" width="105" height="9"/>
	</g>
	<g>
		<rect x="232.524" y="388.5" fill="#455565" stroke="#2C3E50" stroke-miterlimit="10" width="105" height="9"/>
	</g>
	<g>
		<rect x="232.524" y="397.5" fill="#BCC2C6" stroke="#2C3E50" stroke-miterlimit="10" width="105" height="10"/>
	</g>
	<g>
		<rect x="232.524" y="407.5" fill="#E57D22" stroke="#2C3E50" stroke-miterlimit="10" width="105" height="10"/>
	</g>
	<g>
		<rect x="232.524" y="417.5" fill="#F0C30F" stroke="#2C3E50" stroke-miterlimit="10" width="105" height="10"/>
	</g>
	<g>
		<rect x="232.524" y="427.5" fill="#8D44AC" stroke="#2C3E50" stroke-miterlimit="10" width="105" height="11"/>
	</g>
	<g>
		<rect x="232.524" y="438.5" fill="#2C3E50" stroke="#2C3E50" stroke-miterlimit="10" width="105" height="10"/>
	</g>
	<g>
		<rect x="232.524" y="448.5" fill="#27AD60" stroke="#2C3E50" stroke-miterlimit="10" width="105" height="13"/>
	</g>
	<g>
		<rect x="232.524" y="461.5" fill="#BF392B" stroke="#2C3E50" stroke-miterlimit="10" width="105" height="15"/>
	</g>
	<g>
		<rect x="232.524" y="476.5" fill="#455565" stroke="#2C3E50" stroke-miterlimit="10" width="105" height="18"/>
	</g>
	<g>
		<rect x="232.524" y="494.5" fill="#BCC2C6" stroke="#2C3E50" stroke-miterlimit="10" width="105" height="21"/>
	</g>
	<g>
		<rect x="232.524" y="515.5" fill="#E57D22" stroke="#2C3E50" stroke-miterlimit="10" width="105" height="24"/>
	</g>
	<g>
		<rect x="232.524" y="539.5" fill="#F0C30F" stroke="#2C3E50" stroke-miterlimit="10" width="105" height="24"/>
	</g>
	<g>
		<rect x="232.524" y="563.5" fill="#8D44AC" stroke="#2C3E50" stroke-miterlimit="10" width="105" height="24"/>
	</g>
	<rect x="232.524" y="587.5" fill="#2C3E50" stroke="#2C3E50" stroke-miterlimit="10" width="105" height="29"/>
	
		<rect x="102.518" y="77.5" fill="#27AD60" stroke="#2C3E50" stroke-width="0.9554" stroke-miterlimit="10" width="100" height="539"/>
	<g>
		<rect x="362.5" y="48.5" fill="#455565" stroke="#2C3E50" stroke-miterlimit="10" width="25" height="10"/>
		<text transform="matrix(1 0 0 1 407.1972 60.6225)" fill="#EEF2F2" font-family="'OpenSans-Light'" font-size="14">Brittny Spears &amp; Jason Alexander</text>
	</g>
	<g>
		<rect x="362.5" y="4.5" fill="#BCC2C6" stroke="#2C3E50" stroke-miterlimit="10" width="25" height="10"/>
		<text transform="matrix(1 0 0 1 407.1972 17.0556)" fill="#EEF2F2" font-family="'OpenSans-Light'" font-size="14">Michelle Phillips &amp; Dennis Hopper</text>
	</g>
	<g>
		<rect x="362.5" y="70.5" fill="#E57D22" stroke="#2C3E50" stroke-miterlimit="10" width="25" height="10"/>
		<text transform="matrix(1 0 0 1 407.1972 82.4062)" fill="#EEF2F2" font-family="'OpenSans-Light'" font-size="14">Cher &amp; Gregg Allman</text>
	</g>
	<g>
		<rect x="362.5" y="157.5" fill="#F0C30F" stroke="#2C3E50" stroke-miterlimit="10" width="25" height="11"/>
		<text transform="matrix(1 0 0 1 407.1972 169.541)" fill="#EEF2F2" font-family="'OpenSans-Light'" font-size="14">Carmen Electra &amp; Dennis Rodman</text>
	</g>
	<g>
		<rect x="362.5" y="112.5" fill="#8D44AC" stroke="#2C3E50" stroke-miterlimit="10" width="25" height="10"/>
		<text transform="matrix(1 0 0 1 407.1972 125.9741)" fill="#EEF2F2" font-family="'OpenSans-Light'" font-size="14">Catherine Oxenberg &amp; Robert Evans</text>
	</g>
	<g>
		<rect x="362.5" y="221.5" fill="#2C3E50" stroke="#2C3E50" stroke-miterlimit="10" width="25" height="10"/>
		<text transform="matrix(1 0 0 1 407.1972 234.8916)" fill="#EEF2F2" font-family="'OpenSans-Light'" font-size="14">Mario Lopez &amp; Ali L&amp;ry</text>
	</g>
	<g>
		<rect x="362.5" y="26.5" fill="#27AD60" stroke="#2C3E50" stroke-miterlimit="10" width="25" height="10"/>
		<text transform="matrix(1 0 0 1 407.1972 38.8393)" fill="#EEF2F2" font-family="'OpenSans-Light'" font-size="14">Eddie Murphy &amp; Tracey Edmonds</text>
	</g>
	<g>
		<rect x="362.5" y="134.5" fill="#BF392B" stroke="#2C3E50" stroke-miterlimit="10" width="25" height="10"/>
		<text transform="matrix(1 0 0 1 407.1972 147.7573)" fill="#EEF2F2" font-family="'OpenSans-Light'" font-size="14">Sinead O&apos;Connor &amp; Barry Herridge</text>
	</g>
	<g>
		<rect x="362.5" y="266.5" fill="#455565" stroke="#2C3E50" stroke-miterlimit="10" width="25" height="10"/>
		<text transform="matrix(1 0 0 1 407.1972 278.46)" fill="#EEF2F2" font-family="'OpenSans-Light'" font-size="14">Jeremy Thomas &amp; Drew Barrymore</text>
	</g>
	<g>
		<rect x="646.5" y="5.5" fill="#BCC2C6" stroke="#2C3E50" stroke-miterlimit="10" width="25" height="10"/>
		<text transform="matrix(1 0 0 1 691.1972 16.8101)" fill="#EEF2F2" font-family="'OpenSans-Light'" font-size="14">Ethel Merman &amp; Ernest Borgnine</text>
	</g>
	<g>
		<rect x="646.5" y="69.5" fill="#E57D22" stroke="#2C3E50" stroke-miterlimit="10" width="25" height="11"/>
		<text transform="matrix(1 0 0 1 691.1972 82.1611)" fill="#EEF2F2" font-family="'OpenSans-Light'" font-size="14">Rick Salomon &amp; Pam &amp;erson</text>
	</g>
	<g>
		<rect x="362.5" y="200.5" fill="#F0C30F" stroke="#2C3E50" stroke-miterlimit="10" width="25" height="10"/>
		<text transform="matrix(1 0 0 1 407.1972 213.1079)" fill="#EEF2F2" font-family="'OpenSans-Light'" font-size="14">Kim Kardashian &amp; Kris Humphries</text>
	</g>
	<g>
		<rect x="646.5" y="47.5" fill="#8D44AC" stroke="#2C3E50" stroke-miterlimit="10" width="25" height="10"/>
		<text transform="matrix(1 0 0 1 691.1972 60.3779)" fill="#EEF2F2" font-family="'OpenSans-Light'" font-size="14">Nicolas Cage &amp; Lisa Marie Presley</text>
	</g>
	<g>
		<rect x="646.5" y="91.5" fill="#2C3E50" stroke="#2C3E50" stroke-miterlimit="10" width="25" height="10"/>
		<text transform="matrix(1 0 0 1 691.1972 103.9453)" fill="#EEF2F2" font-family="'OpenSans-Light'" font-size="14">Bradley Cooper &amp; Jennifer Esposito</text>
	</g>
	<g>
		<rect x="646.5" y="156.5" fill="#27AD60" stroke="#2C3E50" stroke-miterlimit="10" width="25" height="10"/>
		<text transform="matrix(1 0 0 1 691.1972 169.2959)" fill="#EEF2F2" font-family="'OpenSans-Light'" font-size="14">Rick Salomon &amp; Pamela Anderson</text>
	</g>
	<g>
		<rect x="646.5" y="201.5" fill="#BF392B" stroke="#2C3E50" stroke-miterlimit="10" width="25" height="10"/>
		<text transform="matrix(1 0 0 1 691.1972 212.8633)" fill="#EEF2F2" font-family="'OpenSans-Light'" font-size="14">Kid Rock &amp; Pamela Anderson</text>
	</g>
	<g>
		<rect x="646.5" y="244.5" fill="#455565" stroke="#2C3E50" stroke-miterlimit="10" width="25" height="10"/>
		<text transform="matrix(1 0 0 1 691.1972 256.4307)" fill="#EEF2F2" font-family="'OpenSans-Light'" font-size="14">Kenny Chesny &amp; Renee Zellwinger</text>
	</g>
	<g>
		<rect x="362.5" y="91.5" fill="#BCC2C6" stroke="#2C3E50" stroke-miterlimit="10" width="25" height="10"/>
		<text transform="matrix(1 0 0 1 407.1972 104.1899)" fill="#EEF2F2" font-family="'OpenSans-Light'" font-size="14">Jennifer Lopez &amp; Cris Judd</text>
	</g>
	<g>
		<rect x="362.5" y="177.5" fill="#E57D22" stroke="#2C3E50" stroke-miterlimit="10" width="25" height="10"/>
		<text transform="matrix(1 0 0 1 407.1972 191.3247)" fill="#EEF2F2" font-family="'OpenSans-Light'" font-size="14">Colin Farrell &amp; Amelia Warner</text>
	</g>
	<g>
		<rect x="362.5" y="244.5" fill="#F0C30F" stroke="#2C3E50" stroke-miterlimit="10" width="25" height="10"/>
		<text transform="matrix(1 0 0 1 407.1972 256.6758)" fill="#EEF2F2" font-family="'OpenSans-Light'" font-size="14">Janet Jackson &amp; James DeBarge</text>
	</g>
	<g>
		<rect x="362.5" y="309.5" fill="#8D44AC" stroke="#2C3E50" stroke-miterlimit="10" width="25" height="10"/>
		<text transform="matrix(1 0 0 1 407.1972 322.0269)" fill="#EEF2F2" font-family="'OpenSans-Light'" font-size="14">Charlie Sheen &amp; Donna Peele</text>
	</g>
	<g>
		<rect x="646.5" y="114.5" fill="#2C3E50" stroke="#2C3E50" stroke-miterlimit="10" width="25" height="9"/>
		<text transform="matrix(1 0 0 1 691.1972 125.7285)" fill="#EEF2F2" font-family="'OpenSans-Light'" font-size="14">Ashley Hamilton &amp; Shannen Doherty</text>
	</g>
	<g>
		<rect x="362.5" y="288.5" fill="#27AD60" stroke="#2C3E50" stroke-miterlimit="10" width="25" height="10"/>
		<text transform="matrix(1 0 0 1 407.1972 300.2432)" fill="#EEF2F2" font-family="'OpenSans-Light'" font-size="14">Tom Green &amp; Drew Barrymore</text>
	</g>
	<g>
		<rect x="646.5" y="25.5" fill="#BF392B" stroke="#2C3E50" stroke-miterlimit="10" width="25" height="11"/>
		<text transform="matrix(1 0 0 1 691.1972 38.5942)" fill="#EEF2F2" font-family="'OpenSans-Light'" font-size="14">Elizabeth Taylor &amp; Conrad Hilton</text>
	</g>
	<g>
		<rect x="646.5" y="135.5" fill="#455565" stroke="#2C3E50" stroke-miterlimit="10" width="25" height="10"/>
		<text transform="matrix(1 0 0 1 691.1972 147.5117)" fill="#EEF2F2" font-family="'OpenSans-Light'" font-size="14">Shannen Doherty &amp; Rick Salomon</text>
	</g>
	<g>
		<rect x="646.5" y="178.5" fill="#BCC2C6" stroke="#2C3E50" stroke-miterlimit="10" width="25" height="10"/>
		<text transform="matrix(1 0 0 1 691.1972 191.0791)" fill="#EEF2F2" font-family="'OpenSans-Light'" font-size="14">Jim Carrey &amp; Lauren Holly</text>
	</g>
	<g>
		<rect x="646.5" y="221.5" fill="#E57D22" stroke="#2C3E50" stroke-miterlimit="10" width="25" height="10"/>
		<text transform="matrix(1 0 0 1 691.1972 234.6465)" fill="#EEF2F2" font-family="'OpenSans-Light'" font-size="14">Jennifer Lopez &amp; Ojani Noa</text>
	</g>
	<g>
		<rect x="646.5" y="265.5" fill="#F0C30F" stroke="#2C3E50" stroke-miterlimit="10" width="25" height="10"/>
		<text transform="matrix(1 0 0 1 691.1972 278.2139)" fill="#EEF2F2" font-family="'OpenSans-Light'" font-size="14">Travis Barker &amp; Melissa kennedy</text>
	</g>
	<g>
		<rect x="646.5" y="288.5" fill="#8D44AC" stroke="#2C3E50" stroke-miterlimit="10" width="25" height="10"/>
		<text transform="matrix(1 0 0 1 691.1972 299.998)" fill="#EEF2F2" font-family="'OpenSans-Light'" font-size="14">Alyssa Milano &amp; Cinjin Tate</text>
	</g>
	<g>
		<rect x="646.5" y="309.5" fill="#2C3E50" stroke="#2C3E50" stroke-miterlimit="10" width="25" height="10"/>
		<text transform="matrix(1 0 0 1 691.1972 321.7812)" fill="#EEF2F2" font-family="'OpenSans-Light'" font-size="14">Jennifer Lopez &amp; Ojani Noa</text>
	</g>
	<text transform="matrix(1 0 0 1 97.0464 642.8867)" fill="#EEF2F2" font-family="'Cabin-Medium'" font-size="19.9147">Hugh &amp; Brian</text>
	<text transform="matrix(1 0 0 1 256.6063 644.0878)" fill="#EEF2F2" font-family="'Cabin-Medium'" font-size="19.9147">Celebs</text>
</g>
    <text transform="matrix(1 0 0 1 414 408)"><tspan x="0" y="0" fill="#BCC2C6" font-family="'Museo-500'" font-size="48" letter-spacing="-1">Same sex marriage</tspan><tspan x="0" y="57.6" fill="#BCC2C6" font-family="'Museo-500'" font-size="48" letter-spacing="-1">and the systemic</tspan><tspan x="0" y="115.2" fill="#BCC2C6" font-family="'Museo-500'" font-size="48" letter-spacing="-1">destruction of</tspan><tspan x="0" y="172.8" fill="#BCC2C6" font-family="'Museo-500'" font-size="48" letter-spacing="-1">celebrity relationships</tspan></text>
    <text transform="matrix(1 0 0 1 6 41)" fill="#BCC2C6" font-family="'Museo-500'" font-size="24">days married</text>
</svg>
