<?xml version="1.0" encoding="utf-8"?>
<!-- Generator: Adobe Illustrator 17.0.0, SVG Export Plug-In . SVG Version: 6.00 Build 0)  -->
<!DOCTYPE svg PUBLIC "-//W3C//DTD SVG 1.1//EN" "http://www.w3.org/Graphics/SVG/1.1/DTD/svg11.dtd">
<svg version="1.1" xmlns="http://www.w3.org/2000/svg" xmlns:xlink="http://www.w3.org/1999/xlink" x="0px" y="0px" width="825px"
	 height="403px" viewBox="0 0 825 403" enable-background="new 0 0 825 403" xml:space="preserve">
<g id="Layer_1">
	<rect y="0" fill="#2F2F2F" width="825" height="403"/>
</g>
<g id="axis">
	<line fill="#C0C0C0" stroke="#C0C0C0" stroke-miterlimit="10" x1="63" y1="306.5" x2="656" y2="306.5"/>
	<line fill="#C0C0C0" stroke="#C0C0C0" stroke-miterlimit="10" x1="63.5" y1="306" x2="63.5" y2="297"/>
	<line fill="#C0C0C0" stroke="#C0C0C0" stroke-miterlimit="10" x1="91.5" y1="306" x2="91.5" y2="297"/>
	<line fill="#C0C0C0" stroke="#C0C0C0" stroke-miterlimit="10" x1="119.5" y1="306" x2="119.5" y2="297"/>
	<line fill="#C0C0C0" stroke="#C0C0C0" stroke-miterlimit="10" x1="148.5" y1="306" x2="148.5" y2="297"/>
	<line fill="#C0C0C0" stroke="#C0C0C0" stroke-miterlimit="10" x1="176.5" y1="306" x2="176.5" y2="297"/>
	<line fill="#C0C0C0" stroke="#C0C0C0" stroke-miterlimit="10" x1="204.5" y1="306" x2="204.5" y2="297"/>
	<line fill="#C0C0C0" stroke="#C0C0C0" stroke-miterlimit="10" x1="232.5" y1="306" x2="232.5" y2="297"/>
	<line fill="#C0C0C0" stroke="#C0C0C0" stroke-miterlimit="10" x1="261.5" y1="306" x2="261.5" y2="297"/>
	<line fill="#C0C0C0" stroke="#C0C0C0" stroke-miterlimit="10" x1="289.5" y1="306" x2="289.5" y2="297"/>
	<line fill="#C0C0C0" stroke="#C0C0C0" stroke-miterlimit="10" x1="317.5" y1="306" x2="317.5" y2="297"/>
	<line fill="#C0C0C0" stroke="#C0C0C0" stroke-miterlimit="10" x1="345.5" y1="306" x2="345.5" y2="297"/>
	<line fill="#C0C0C0" stroke="#C0C0C0" stroke-miterlimit="10" x1="374.5" y1="306" x2="374.5" y2="297"/>
	<line fill="#C0C0C0" stroke="#C0C0C0" stroke-miterlimit="10" x1="402.5" y1="306" x2="402.5" y2="297"/>
	<line fill="#C0C0C0" stroke="#C0C0C0" stroke-miterlimit="10" x1="430.5" y1="306" x2="430.5" y2="297"/>
	<line fill="#C0C0C0" stroke="#C0C0C0" stroke-miterlimit="10" x1="458.5" y1="306" x2="458.5" y2="297"/>
	<line fill="#C0C0C0" stroke="#C0C0C0" stroke-miterlimit="10" x1="486.5" y1="306" x2="486.5" y2="297"/>
	<line fill="#C0C0C0" stroke="#C0C0C0" stroke-miterlimit="10" x1="515.5" y1="306" x2="515.5" y2="297"/>
	<line fill="#C0C0C0" stroke="#C0C0C0" stroke-miterlimit="10" x1="543.5" y1="306" x2="543.5" y2="297"/>
	<line fill="#C0C0C0" stroke="#C0C0C0" stroke-miterlimit="10" x1="571.5" y1="306" x2="571.5" y2="297"/>
	<line fill="#C0C0C0" stroke="#C0C0C0" stroke-miterlimit="10" x1="599.5" y1="306" x2="599.5" y2="297"/>
	<line fill="#C0C0C0" stroke="#C0C0C0" stroke-miterlimit="10" x1="628.5" y1="306" x2="628.5" y2="297"/>
	<line fill="#C0C0C0" stroke="#C0C0C0" stroke-miterlimit="10" x1="655.5" y1="307" x2="655.5" y2="298"/>
	<text transform="matrix(1 0 0 1 46.8926 310.6904)" fill="#FFFFFF" font-family="'Museo-700'" font-size="12">0</text>
	<text transform="matrix(1 0 0 1 17.7212 214.0173)" fill="#FFFFFF" font-family="'Museo-700'" font-size="12">50000</text>
	<text transform="matrix(1 0 0 1 11.1211 117.3438)" fill="#FFFFFF" font-family="'Museo-700'" font-size="12">100000</text>
	<text transform="matrix(1 0 0 1 11.3252 20.6709)" fill="#FFFFFF" font-family="'Museo-700'" font-size="12">150000</text>
	<line fill="#C0C0C0" stroke="#C0C0C0" stroke-miterlimit="10" x1="63.5" y1="306" x2="63.5" y2="17"/>
	<line fill="#C0C0C0" stroke="#C0C0C0" stroke-miterlimit="10" x1="63" y1="306.5" x2="78" y2="306.5"/>
	<line fill="#C0C0C0" stroke="#C0C0C0" stroke-miterlimit="10" x1="63" y1="209.5" x2="78" y2="209.5"/>
	<line fill="#C0C0C0" stroke="#C0C0C0" stroke-miterlimit="10" x1="63" y1="112.5" x2="78" y2="112.5"/>
	<line fill="#C0C0C0" stroke="#C0C0C0" stroke-miterlimit="10" x1="63" y1="16.5" x2="78" y2="16.5"/>
	<path fill="#C0C0C0" stroke="#C0C0C0" stroke-miterlimit="10" d="M63,15.5"/>
</g>
<g id="tx-bars">
	<rect x="581.5" y="149.5" fill="#4BB3D2" stroke="#C3C1B5" stroke-miterlimit="10" width="10" height="157"/>
	<rect x="610.5" y="128.5" fill="#4BB3D2" stroke="#C3C1B5" stroke-miterlimit="10" width="10" height="178"/>
	<rect x="638.5" y="144.5" fill="#4BB3D2" stroke="#C3C1B5" stroke-miterlimit="10" width="10" height="162"/>
</g>
<g id="ca-bars">
	<rect x="71.5" y="58.5" fill="#662D91" stroke="#C3C1B5" stroke-miterlimit="10" width="11" height="248"/>
	<rect x="100.5" y="69.5" fill="#662D91" stroke="#C3C1B5" stroke-miterlimit="10" width="10" height="237"/>
	<rect x="128.5" y="64.5" fill="#662D91" stroke="#C3C1B5" stroke-miterlimit="10" width="10" height="242"/>
	<rect x="156.5" y="38.5" fill="#662D91" stroke="#C3C1B5" stroke-miterlimit="10" width="10" height="268"/>
	<rect x="185.5" y="62.5" fill="#662D91" stroke="#C3C1B5" stroke-miterlimit="10" width="10" height="244"/>
	<rect x="213.5" y="49.5" fill="#662D91" stroke="#C3C1B5" stroke-miterlimit="10" width="10" height="257"/>
	<rect x="241.5" y="77.5" fill="#662D91" stroke="#C3C1B5" stroke-miterlimit="10" width="10" height="229"/>
	<rect x="270.5" y="48.5" fill="#662D91" stroke="#C3C1B5" stroke-miterlimit="10" width="10" height="258"/>
	<rect x="298.5" y="42.5" fill="#662D91" stroke="#C3C1B5" stroke-miterlimit="10" width="10" height="264"/>
	<rect x="326.5" y="55.5" fill="#662D91" stroke="#C3C1B5" stroke-miterlimit="10" width="11" height="251"/>
	<rect x="355.5" y="37.5" fill="#662D91" stroke="#C3C1B5" stroke-miterlimit="10" width="10" height="269"/>
	<rect x="383.5" y="69.5" fill="#662D91" stroke="#C3C1B5" stroke-miterlimit="10" width="10" height="237"/>
	<rect x="411.5" y="58.5" fill="#662D91" stroke="#C3C1B5" stroke-miterlimit="10" width="10" height="248"/>
	<rect x="439.5" y="32.5" fill="#662D91" stroke="#C3C1B5" stroke-miterlimit="10" width="11" height="274"/>
	<rect x="468.5" y="49.5" fill="#662D91" stroke="#C3C1B5" stroke-miterlimit="10" width="10" height="257"/>
	<rect x="496.5" y="23.5" fill="#662D91" stroke="#C3C1B5" stroke-miterlimit="10" width="10" height="283"/>
	<rect x="525.5" y="10.5" fill="#662D91" stroke="#C3C1B5" stroke-miterlimit="10" width="10" height="296"/>
	<rect x="553.5" y="58.5" fill="#662D91" stroke="#C3C1B5" stroke-miterlimit="10" width="10" height="248"/>
</g>
<g id="legend">
	<g>
		<rect x="63.5" y="344.5" fill="#662D91" stroke="#F900F9" stroke-miterlimit="10" width="10" height="20"/>
		<text transform="matrix(1 0 0 1 83.5384 359.4999)" fill="#FFFFFF" font-family="'Museo-700'" font-size="15">California</text>
	</g>
	<g>
		<rect x="177.5" y="345.5" fill="#4BB3D2" stroke="#00FFFF" stroke-miterlimit="10" width="10" height="20"/>
		<text transform="matrix(1 0 0 1 199 359.6641)" fill="#FFFFFF" font-family="'Museo-700'" font-size="15">Texas</text>
	</g>
	<g>
		<g>
			<path fill="#D64D4D" d="M746.662,82.139l-7.356-18.475l5.46-14.994c0,0-2.671-11.257-2.726-10.768
				c-1.374-13.669-11.905-24.34-25.937-24.34c-14.956,0-27.08,12.124-27.08,27.08c0,25.662,38.897,52.967,51.329,61.04
				L746.662,82.139z"/>
			<path fill="#D64D4D" d="M769.951,13.876c-12.108,0-22.352,7.949-25.816,18.911l4.651,16.14l-0.024,0.031l0.024,0.047
				l-5.479,14.512l6.989,18.722l-7.823,20.661c1.685,1.077,1.658,1.158,1.658,1.158s52.902-29.511,52.902-63.103
				C797.031,26,784.907,13.876,769.951,13.876z"/>
		</g>
		<g>
			<g>
				<circle fill="#F5F5F5" cx="769.657" cy="22.689" r="5.373"/>
				<path fill="#F5F5F5" d="M783.341,47.851l-4.258-13.233c-0.03-0.092-0.073-0.167-0.11-0.251c-1.695-4.293-5.47-5.302-6.803-5.302
					c-1.208,0-0.933,0-2.19,0c-0.285,0-0.516,0-0.713,0c-1.256,0-0.981,0-2.188,0c-1.335,0-5.108,1.011-6.803,5.302
					c-0.039,0.084-0.082,0.161-0.11,0.251l-4.258,13.233c-0.364,1.107,0.235,2.305,1.346,2.669c1.108,0.364,2.303-0.236,2.666-1.345
					l4.104-12.751h0.962l-7.001,21.866h5.712v17.327c0,1.379,1.119,2.499,2.499,2.499s2.499-1.119,2.499-2.499V58.291h1.867v17.327
					c0,1.379,1.118,2.499,2.499,2.499c1.379,0,2.499-1.119,2.499-2.499V58.291h5.712l-7.001-21.866h0.96l4.105,12.751
					c0.363,1.107,1.558,1.709,2.666,1.345C783.104,50.156,783.705,48.958,783.341,47.851z"/>
			</g>
		</g>
		<g>
			<g>
				<g>
					<circle fill="#F5F5F5" cx="719.632" cy="22.367" r="5.407"/>
					<path fill="#F5F5F5" d="M732.263,36.155c-0.022-4.017-3.284-7.266-7.307-7.266h-7.224h-0.497h-2.931
						c-4.022,0-7.283,3.251-7.306,7.266c0,0.008-0.002,0.014-0.002,0.022v14.304c0,1.288,1.044,2.333,2.332,2.333
						c1.29,0,2.333-1.045,2.333-2.333v-8.483v-4.769h1.115v5.103v9.141v1.323v22.192c0,1.729,1.403,3.13,3.129,3.13
						c1.731,0,3.131-1.401,3.131-3.13V52.795h1.184v22.192c0,1.729,1.401,3.13,3.129,3.13c1.731,0,3.131-1.401,3.131-3.13V52.795
						v-1.323v-9.141v-5.103h1.115v4.769v8.483c0,1.288,1.044,2.333,2.333,2.333c1.288,0,2.332-1.045,2.332-2.333V36.177
						C732.264,36.169,732.263,36.163,732.263,36.155z"/>
				</g>
			</g>
		</g>
	</g>
	<g>
		<text transform="matrix(1 0 0 1 309 359.6641)" fill="#FFFFFF" font-family="'Museo-700'" font-size="20">Total: 2,500,000 “Traditional” Marriages Destroyed</text>
	</g>
</g>
<g id="years">
	<text transform="matrix(1 0 0 1 604.0365 322.1938)" fill="#FFFFFF" font-family="'Museo-500'" font-size="9">2012</text>
	<text transform="matrix(1 0 0 1 65.9229 322.1934)" fill="#FFFFFF" font-family="'Museo-500'" font-size="9">1993</text>
	<text transform="matrix(1 0 0 1 576.0079 322.1938)" fill="#FFFFFF" font-family="'Museo-500'" font-size="9">2011</text>
	<text transform="matrix(1 0 0 1 547.2722 322.1938)" fill="#FFFFFF" font-family="'Museo-500'" font-size="9">2010</text>
	<text transform="matrix(1 0 0 1 518.5143 322.1938)" fill="#FFFFFF" font-family="'Museo-500'" font-size="9">2009</text>
	<text transform="matrix(1 0 0 1 490.1832 322.1938)" fill="#FFFFFF" font-family="'Museo-500'" font-size="9">2008</text>
	<text transform="matrix(1 0 0 1 462.1411 322.1938)" fill="#FFFFFF" font-family="'Museo-500'" font-size="9">2007</text>
	<text transform="matrix(1 0 0 1 433.4955 322.1938)" fill="#FFFFFF" font-family="'Museo-500'" font-size="9">2006</text>
	<text transform="matrix(1 0 0 1 405.0884 322.1938)" fill="#FFFFFF" font-family="'Museo-500'" font-size="9">2005</text>
	<text transform="matrix(1 0 0 1 376.7805 322.1938)" fill="#FFFFFF" font-family="'Museo-500'" font-size="9">2004</text>
	<text transform="matrix(1 0 0 1 348.6339 322.1938)" fill="#FFFFFF" font-family="'Museo-500'" font-size="9">2003</text>
	<text transform="matrix(1 0 0 1 320.1595 322.1938)" fill="#FFFFFF" font-family="'Museo-500'" font-size="9">2002</text>
	<text transform="matrix(1 0 0 1 292.1486 322.1938)" fill="#FFFFFF" font-family="'Museo-500'" font-size="9">2001</text>
	<text transform="matrix(1 0 0 1 263.2782 322.1938)" fill="#FFFFFF" font-family="'Museo-500'" font-size="9">2000</text>
	<text transform="matrix(1 0 0 1 235.8206 322.1938)" fill="#FFFFFF" font-family="'Museo-500'" font-size="9">1999</text>
	<text transform="matrix(1 0 0 1 207.4628 322.1938)" fill="#FFFFFF" font-family="'Museo-500'" font-size="9">1998</text>
	<text transform="matrix(1 0 0 1 179.389 322.1938)" fill="#FFFFFF" font-family="'Museo-500'" font-size="9">1997</text>
	<text transform="matrix(1 0 0 1 150.802 322.1938)" fill="#FFFFFF" font-family="'Museo-500'" font-size="9">1996</text>
	<text transform="matrix(1 0 0 1 122.3949 322.1938)" fill="#FFFFFF" font-family="'Museo-500'" font-size="9">1995</text>
	<text transform="matrix(1 0 0 1 94.0868 322.1938)" fill="#FFFFFF" font-family="'Museo-500'" font-size="9">1994</text>
	<text transform="matrix(1 0 0 1 632.5382 322.1935)" fill="#FFFFFF" font-family="'Museo-500'" font-size="9">2013</text>
</g>
</svg>
