<?xml version="1.0" encoding="utf-8"?>
<!-- Generator: Adobe Illustrator 17.0.0, SVG Export Plug-In . SVG Version: 6.00 Build 0)  -->
<!DOCTYPE svg PUBLIC "-//W3C//DTD SVG 1.1//EN" "http://www.w3.org/Graphics/SVG/1.1/DTD/svg11.dtd">
<svg version="1.1" id="Layer_1" xmlns="http://www.w3.org/2000/svg" xmlns:xlink="http://www.w3.org/1999/xlink" x="0px" y="0px"
	 width="960px" height="508px" viewBox="0 0 960 508" enable-background="new 0 0 960 508" xml:space="preserve">
<g id="Layer_2">
	<rect fill="#2F2F2F" width="960" height="508"/>
</g>
<g id="chart-dividers">
	<line fill="none" stroke="#C3C1B5" stroke-width="2" stroke-miterlimit="10" x1="14.047" y1="142.763" x2="944.047" y2="142.763"/>
	<line fill="none" stroke="#C3C1B5" stroke-width="2" stroke-miterlimit="10" x1="14.047" y1="350.756" x2="944.047" y2="350.756"/>
	<line fill="none" stroke="#C3C1B5" stroke-width="2" stroke-miterlimit="10" x1="479.047" y1="7.763" x2="479.047" y2="497.763"/>
</g>
<g id="hearing_aid_abtteries_xA0_Image_1_">
	<g>
		<text transform="matrix(1 0 0 1 193.6443 409.6672)" fill="#FFFFFF" font-family="'Museo-700'" font-size="22.4">hearing aid batteries</text>
		<text transform="matrix(1 0 0 1 193.6443 436.5472)" fill="#FFFFFF" font-family="'Museo-700'" font-size="22.4">consumed during the</text>
		<text transform="matrix(1 0 0 1 193.6443 463.4272)" fill="#FFFFFF" font-family="'Museo-700'" font-size="22.4">course of 20 years</text>
		<g>
			<path d="M126.976,396.112c-11.374,0-21.594,4.931-28.648,12.768c-8.966-2.8-40.071-12.274-50.351-12.274
				c-9.84,0-15.715,11.327-15.715,30.244v0.003c-0.023,0.699-0.231,6.844-0.231,7.667c0,0.774,0.208,6.921,0.23,7.559
				c0,8.32,1.186,15.468,3.429,20.672c3.435,7.971,8.578,9.64,12.288,9.638c10.207-0.008,40.939-9.342,50.148-12.212
				c7.06,7.97,17.364,13,28.849,13c21.281,0,38.533-17.252,38.533-38.533C165.509,413.365,148.258,396.112,126.976,396.112z"/>
			<path fill="#FCFCFC" d="M124.944,393.064c-11.374,0-21.594,4.931-28.648,12.768c-8.966-2.8-40.071-12.274-50.351-12.274
				c-9.84,0-15.715,11.327-15.715,30.244v0.003c-0.022,0.7-0.23,6.845-0.23,7.668c0,0.774,0.208,6.921,0.23,7.559
				c0,8.32,1.186,15.468,3.429,20.672c3.435,7.971,8.578,9.64,12.288,9.638c10.207-0.008,40.939-9.342,50.148-12.212
				c7.06,7.97,17.364,13,28.849,13c21.281,0,38.533-17.252,38.533-38.533S146.225,393.064,124.944,393.064z"/>
			<g>
				<g>
					<g>
						<path fill="#AA4500" d="M100.942,456.936l-1.234,0.394c-1.666,0.532-40.942,13.019-52.745,13.029
							c-3.71,0.003-8.853-1.667-12.288-9.638c-2.243-5.204-3.429-12.352-3.429-20.672c-0.022-0.638-0.23-6.785-0.23-7.559
							c0-0.823,0.208-6.968,0.231-7.667v-0.003c0-18.917,5.875-30.244,15.715-30.244c11.804,0,51.082,12.497,52.748,13.03
							l1.233,0.393v48.937H100.942z"/>
						<path fill="#F67721" d="M46.962,396.346c-9.761,0-13.944,13.355-13.944,28.538c0,0-0.236,6.942-0.23,7.582
							c-0.006,0.64,0.23,7.583,0.23,7.583c0,15.198,4.109,28.546,13.944,28.538c11.663-0.009,52.208-12.945,52.208-12.945V409.29
							C99.17,409.291,58.625,396.346,46.962,396.346z"/>
					</g>
					
						<radialGradient id="SVGID_1_" cx="180.7734" cy="375.4896" r="38.533" gradientTransform="matrix(-1 0 0 1 306.7334 57.1234)" gradientUnits="userSpaceOnUse">
						<stop  offset="0" style="stop-color:#E5E2DF"/>
						<stop  offset="0" style="stop-color:#F1EFEE"/>
						<stop  offset="0" style="stop-color:#FFFFFF"/>
						<stop  offset="0.1795" style="stop-color:#F0F0F1"/>
						<stop  offset="0.5223" style="stop-color:#C9CACB"/>
						<stop  offset="0.7449" style="stop-color:#ADAEB0"/>
						<stop  offset="0.8226" style="stop-color:#AAABAD"/>
						<stop  offset="0.8836" style="stop-color:#A2A2A3"/>
						<stop  offset="0.9389" style="stop-color:#959392"/>
						<stop  offset="0.9906" style="stop-color:#817F7B"/>
						<stop  offset="1" style="stop-color:#7D7A76"/>
					</radialGradient>
					
						<linearGradient id="SVGID_2_" gradientUnits="userSpaceOnUse" x1="141.8066" y1="375.4896" x2="219.742" y2="375.4896" gradientTransform="matrix(-1 0 0 1 306.7343 57.1234)">
						<stop  offset="0" style="stop-color:#E5E2DF"/>
						<stop  offset="0" style="stop-color:#DED9D6"/>
						<stop  offset="0.063" style="stop-color:#CFCAC9"/>
						<stop  offset="0.1833" style="stop-color:#A8A4A7"/>
						<stop  offset="0.264" style="stop-color:#8B878D"/>
						<stop  offset="0.5225" style="stop-color:#F3F4F4"/>
						<stop  offset="0.5842" style="stop-color:#E5E5E6"/>
						<stop  offset="0.7027" style="stop-color:#C0BEC0"/>
						<stop  offset="0.8647" style="stop-color:#858085"/>
						<stop  offset="0.8764" style="stop-color:#807B80"/>
						<stop  offset="1" style="stop-color:#D1D3D4"/>
						<stop  offset="1" style="stop-color:#A7A9AC"/>
					</linearGradient>
					
						<circle fill="url(#SVGID_1_)" stroke="url(#SVGID_2_)" stroke-width="0.8694" stroke-miterlimit="10" cx="125.96" cy="432.613" r="38.533"/>
					
						<radialGradient id="SVGID_3_" cx="180.7734" cy="375.4896" r="33.218" gradientTransform="matrix(-1 0 0 1 306.7334 57.1234)" gradientUnits="userSpaceOnUse">
						<stop  offset="0" style="stop-color:#E5E2DF"/>
						<stop  offset="0" style="stop-color:#DED9D6"/>
						<stop  offset="0.1208" style="stop-color:#E8E6E5"/>
						<stop  offset="0.2177" style="stop-color:#F3F4F4"/>
						<stop  offset="0.3912" style="stop-color:#E4E6E6"/>
						<stop  offset="0.5648" style="stop-color:#D1D3D4"/>
						<stop  offset="0.8109" style="stop-color:#A7A9AC"/>
						<stop  offset="1" style="stop-color:#807B80"/>
					</radialGradient>
					
						<path opacity="0.8" fill="url(#SVGID_3_)" stroke="#000000" stroke-width="1.7388" stroke-miterlimit="10" enable-background="new    " d="
						M125.96,399.395c18.317,0,33.218,14.902,33.218,33.218s-14.902,33.218-33.218,33.218s-33.218-14.902-33.218-33.218
						S107.643,399.395,125.96,399.395z"/>
					
						<radialGradient id="SVGID_4_" cx="180.7734" cy="375.4896" r="38.533" gradientTransform="matrix(-1 0 0 1 306.7334 57.1234)" gradientUnits="userSpaceOnUse">
						<stop  offset="0" style="stop-color:#E5E2DF"/>
						<stop  offset="0" style="stop-color:#F1EFEE"/>
						<stop  offset="0" style="stop-color:#FFFFFF"/>
						<stop  offset="0.1795" style="stop-color:#F0F0F1"/>
						<stop  offset="0.5223" style="stop-color:#C9CACB"/>
						<stop  offset="0.7449" style="stop-color:#ADAEB0"/>
						<stop  offset="0.8226" style="stop-color:#AAABAD"/>
						<stop  offset="0.8836" style="stop-color:#A2A2A3"/>
						<stop  offset="0.9389" style="stop-color:#959392"/>
						<stop  offset="0.9906" style="stop-color:#817F7B"/>
						<stop  offset="1" style="stop-color:#7D7A76"/>
					</radialGradient>
					
						<linearGradient id="SVGID_5_" gradientUnits="userSpaceOnUse" x1="141.8066" y1="375.4896" x2="219.742" y2="375.4896" gradientTransform="matrix(-1 0 0 1 306.7343 57.1234)">
						<stop  offset="0" style="stop-color:#E5E2DF"/>
						<stop  offset="0" style="stop-color:#DED9D6"/>
						<stop  offset="0.063" style="stop-color:#CFCAC9"/>
						<stop  offset="0.1833" style="stop-color:#A8A4A7"/>
						<stop  offset="0.264" style="stop-color:#8B878D"/>
						<stop  offset="0.5225" style="stop-color:#F3F4F4"/>
						<stop  offset="0.5842" style="stop-color:#E5E5E6"/>
						<stop  offset="0.7027" style="stop-color:#C0BEC0"/>
						<stop  offset="0.8647" style="stop-color:#858085"/>
						<stop  offset="0.8764" style="stop-color:#807B80"/>
						<stop  offset="1" style="stop-color:#D1D3D4"/>
						<stop  offset="1" style="stop-color:#A7A9AC"/>
					</linearGradient>
					
						<circle fill="url(#SVGID_4_)" stroke="url(#SVGID_5_)" stroke-width="0.8694" stroke-miterlimit="10" cx="125.96" cy="432.613" r="38.533"/>
					<g>
						
							<radialGradient id="SVGID_6_" cx="180.6494" cy="374.3496" r="33.218" gradientTransform="matrix(-1 0 0 1 306.7334 57.1234)" gradientUnits="userSpaceOnUse">
							<stop  offset="0" style="stop-color:#E5E2DF"/>
							<stop  offset="0" style="stop-color:#DED9D6"/>
							<stop  offset="0.1208" style="stop-color:#E8E6E5"/>
							<stop  offset="0.2177" style="stop-color:#F3F4F4"/>
							<stop  offset="0.3912" style="stop-color:#E4E6E6"/>
							<stop  offset="0.5648" style="stop-color:#D1D3D4"/>
							<stop  offset="0.8109" style="stop-color:#A7A9AC"/>
							<stop  offset="1" style="stop-color:#807B80"/>
						</radialGradient>
						
							<path opacity="0.8" fill="url(#SVGID_6_)" stroke="#000000" stroke-width="1.7388" stroke-miterlimit="10" enable-background="new    " d="
							M126.084,398.255c18.317,0,33.218,14.902,33.218,33.218s-14.902,33.218-33.218,33.218s-33.218-14.902-33.218-33.218
							S107.768,398.255,126.084,398.255z"/>
					</g>
				</g>
				<text transform="matrix(1 0 0 1 101.9154 439.6248)" font-family="'Museo-700'" font-size="23.4341">1018</text>
			</g>
		</g>
	</g>
</g>
<g id="scrabble">
	<g>
		<g>
			<g>
				<text transform="matrix(1 0 0 1 118.129 84.2403)" fill="#2D2D2D" font-family="'Museo-700'" font-size="54.2982">9</text>
			</g>
		</g>
		<text transform="matrix(1 0 0 1 189.1662 59.6278)" fill="#FFFFFF" font-family="'Museo-700'" font-size="22.4">% of scrabble type</text>
		<text transform="matrix(1 0 0 1 189.1662 86.5078)" fill="#FFFFFF" font-family="'Museo-700'" font-size="22.4">games Hugh wins</text>
	</g>
</g>
<g id="captions">
	<g>
		<text transform="matrix(1 0 0 1 190.7863 223.2769)" fill="#FFFFFF" font-family="'Museo-700'" font-size="22.4">times Brian repeats</text>
		<text transform="matrix(1 0 0 1 190.7863 250.1569)" fill="#FFFFFF" font-family="'Museo-700'" font-size="22.4">something due to</text>
		<text transform="matrix(1 0 0 1 190.7863 277.0369)" fill="#FFFFFF" font-family="'Museo-700'" font-size="22.4">derp-y captioning</text>
		<g>
			<path fill="#F8A4FF" stroke="#FAB6FF" stroke-width="2" stroke-miterlimit="10" d="M124.904,203.039
				c-10.941,0-20.99,3.398-28.136,10.566c6.615,6.421,11.027,15.72,11.894,25.485c1.512-7.297,8.196-12.575,15.944-12.575
				c8.819,0,16.267,7.493,16.267,16.228c0,8.736-7.448,15.532-16.267,15.532c-8.699,0-16.048-7.332-16.248-16.045
				c0.053,0.059,0.007-0.056,0.007,0.002c-0.005-1.113,0.396-2.038,0.298-3.143c-0.198,0.954-0.228,2.069-0.24,3.084
				c-0.001-0.06,0.088-0.203,0.088-0.262l-0.029-0.058c0-21.647-17.308-38.991-39.093-38.991c-20.869,0-37.828,16.561-39.203,37.153
				l-0.226,1.968c0.659,21.401,18.042,38.419,39.409,38.419c10.621,0,20.189-4.117,27.309-10.964
				c7.151,7.475,17.177,12.219,28.31,12.219c21.785,0,39.361-17.121,39.361-38.96S146.689,203.039,124.904,203.039z M85.46,240
				c0,0-0.004,0.639-0.005,0.58c-0.1,8.442-7.329,16.17-16.087,16.17c-8.58,0-15.558-6.698-15.932-14.915
				c0.385-8.43,7.127-15.565,15.702-15.565c8.819,0,15.862,7.137,15.862,15.654v0.055c0,5.477,1.404,9.933,3.376,14.676
				c-2.08-4.862-2.98-10.655-2.98-16.655H85.46z M88.996,258.107c0.095,0.218,0.192,0.435,0.291,0.651
				C89.185,258.544,89.093,258.324,88.996,258.107z"/>
			<path fill="#2F2F2F" stroke="#000000" stroke-width="2" stroke-miterlimit="10" d="M126.022,203.944
				c-10.941,0-20.99,3.398-28.136,10.566c6.615,6.421,11.027,15.72,11.894,25.485c1.512-7.297,8.196-12.575,15.944-12.575
				c8.819,0,16.267,7.493,16.267,16.228s-7.448,15.532-16.267,15.532c-8.699,0-16.048-7.332-16.248-16.045
				c0.053,0.059-0.927,0.128-0.927,0.185c-0.005-1.113,1.33-2.222,1.232-3.326c-0.198,0.954,0.116,2.96,0.146,2.958
				c-0.06,0.005-0.555-0.091-0.555-0.151l-0.394-0.022c0-21.647-16.546-39.013-38.33-39.013c-20.869,0-37.898,16.561-39.274,37.153
				l-0.249,2.082c0.659,21.401,18.018,38.362,39.385,38.362c10.621,0,20.177-4.146,27.297-10.993
				c7.151,7.475,17.171,12.204,28.304,12.204c21.785,0,39.358-17.128,39.358-38.967S147.806,203.944,126.022,203.944z M86.577,242
				c0,0-0.004,0.091-0.005,0.032c-0.1,8.442-7.329,15.896-16.087,15.896c-8.58,0-15.558-6.835-15.932-15.052
				c0.385-8.43,7.568-15.633,16.144-15.633c8.819,0,16.303,7.069,16.303,15.586v0.055c0,5.477,0.962,10.481,2.934,15.224
				C87.855,253.245,86.512,247,86.512,242H86.577z M90.113,259.012c0.095,0.218,0.192,0.435,0.291,0.651
				C90.302,259.449,90.21,259.229,90.113,259.012z"/>
			<g>
				
					<linearGradient id="SVGID_7_" gradientUnits="userSpaceOnUse" x1="-53.864" y1="240.7945" x2="79.376" y2="240.7945" gradientTransform="matrix(1 0 0 -1 84 483)">
					<stop  offset="0" style="stop-color:#7B3D99"/>
					<stop  offset="0.9949" style="stop-color:#7B3D99"/>
				</linearGradient>
				<path fill="url(#SVGID_7_)" d="M163.376,242c0,21-17.596,39.302-39.188,39.302S85,264.201,85,242.393v0.009
					c0-8.442-7.117-16.029-15.858-16.029C60.4,226.373,53.405,233,53.405,242H30.136c0-21,17.778-38.891,39.37-38.891
					S109,220.96,109,242.416v-0.005c0,8.793,6.812,15.623,15.554,15.623S140.108,252,140.108,242H163.376z"/>
				<g>
					
						<linearGradient id="SVGID_8_" gradientUnits="userSpaceOnUse" x1="-53.859" y1="222.2245" x2="12.442" y2="222.2245" gradientTransform="matrix(1 0 0 -1 84 483)">
						<stop  offset="0.5536" style="stop-color:#7B3D99"/>
						<stop  offset="1" style="stop-color:#260B33"/>
					</linearGradient>
					<path fill="url(#SVGID_8_)" d="M85.183,242.059L85.183,242.059c0-0.059-0.004-0.117-0.005-0.176
						c-0.1,8.368-7.264,15.652-15.945,15.652s-15.726-7.109-15.823-15.476c-0.001,0.059-0.005-1.326-0.005-0.514l-23.201-0.974
						l-0.063,1.84c0.19,21.11,17.618,38.569,39.092,38.569c10.596,0,20.137-4.322,27.209-11.186
						C89.423,262.753,85.183,252.914,85.183,242.059z"/>
					
						<linearGradient id="SVGID_9_" gradientUnits="userSpaceOnUse" x1="-53.8636" y1="240.853" x2="-53.8591" y2="240.853" gradientTransform="matrix(1 0 0 -1 84 483)">
						<stop  offset="0" style="stop-color:#552F7F"/>
						<stop  offset="0.9949" style="stop-color:#7B3D99"/>
					</linearGradient>
					<path fill="url(#SVGID_9_)" d="M30.141,242.059h-0.004c0,0.059,0.002,0.117,0.002,0.176
						C30.139,242.176,30.14,242.118,30.141,242.059z"/>
				</g>
				
					<linearGradient id="SVGID_10_" gradientUnits="userSpaceOnUse" x1="12.677" y1="259.881" x2="79.376" y2="259.881" gradientTransform="matrix(1 0 0 -1 84 483)">
					<stop  offset="0" style="stop-color:#260B33"/>
					<stop  offset="0.3154" style="stop-color:#7B3D99"/>
				</linearGradient>
				<path fill="url(#SVGID_10_)" d="M108.917,242.952c0-0.061,0.083-0.134,0.083-0.195v0.006c0-8.793,6.812-16.209,15.554-16.209
					s15.554,6.447,15.554,15.447h23.268c0-20-17.504-38.715-39.096-38.715c-10.845,0-20.52,3.687-27.603,10.792
					C103.975,221.16,108.867,232.097,108.917,242.952z"/>
			</g>
		</g>
	</g>
</g>
<g display="none">
	<g display="inline">
		<path fill="#FFFFFF" d="M640.769,72.819c-0.557-6.405-12.181-9.474-20.287-10.884c-9.092-1.582-13.817-1.175-22.841-3.93
			c-3.564-1.088-3.423-18.165-47.617-15.425c-20.233,1.254-15.496,6.668-30.123,17.079c-6.33,4.505-14.471,1.093-14.454,17.619
			c0.003,3.156,9.795,8.061,9.795,6.708c0-16.241,25.376-17.82,25.376,1.353c0,0,73.136,0.143,73.136,0.062
			c-0.053-17.43,25.002-18.845,25.404-1.101C639.247,88.214,641.446,80.601,640.769,72.819z"/>
		<circle fill="#FFFFFF" cx="528.206" cy="84.009" r="11.076"/>
		<circle fill="#FFFFFF" cx="626.693" cy="83.939" r="11.076"/>
	</g>
	<g display="inline">
		<path d="M619.083,60.535c-9.092-1.582-13.816-1.175-22.841-3.93c-3.564-1.088-3.423-18.165-47.617-15.425
			c-20.233,1.254-15.496,6.668-30.123,17.079c-6.33,4.505-14.471,1.093-14.454,17.619c0.003,3.156,9.795,8.061,9.795,6.708
			c0-16.241,25.376-17.82,25.376,1.353c0,0,73.136,0.143,73.136,0.062c-0.053-17.43,25.002-18.845,25.404-1.101
			c0.089,3.916,2.288-3.697,1.611-11.479C638.812,65.015,627.189,61.945,619.083,60.535z M529.052,56.194
			c10.481-8.12,7.484-11.858,22.996-12.618c1.65-0.081,1.951-0.132,4.951-0.161V56.12C539,56.158,529.052,56.194,529.052,56.194z
			 M559,56.116V43.395c32-0.313,29.084,11.798,31.805,12.629C590.85,56.038,577,56.079,559,56.116z"/>
		<g>
			<path fill="#8100A0" d="M614.413,62.451c-19.809-1.134-76.602,14.712-71.698,15.332c5.073,0.641,86.393-22.996,93.373-5.158
				C637.675,76.68,641.202,63.984,614.413,62.451z"/>
			<path fill="#EBA538" d="M552.509,82.743c4.667,0.009,59.308,0.139,59.307,0.061c-0.034-11.085,12.799-15.844,20.609-14.824
				C610.106,63.815,590.739,80.883,552.509,82.743z"/>
			<path fill="#D94D4D" d="M555.905,67.016c35.173,2.198,54.559,11.053,54.559,11.053s2.597-10.546,19.845-11.899
				C607.988,62.006,595.643,67.186,555.905,67.016z"/>
		</g>
		<path d="M526.806,71.533c-6.117,0-11.076,4.959-11.076,11.076s4.959,11.076,11.076,11.076s11.076-4.959,11.076-11.076
			C537.882,76.492,532.923,71.533,526.806,71.533z M526.805,89.453c-3.773,0-6.843-3.07-6.843-6.844s3.069-6.844,6.843-6.844
			s6.844,3.07,6.844,6.844S530.579,89.453,526.805,89.453z"/>
		<path d="M625.293,71.463c-6.117,0-11.076,4.959-11.076,11.076c0,6.117,4.959,11.076,11.076,11.076s11.076-4.959,11.076-11.076
			S631.41,71.463,625.293,71.463z M625.293,89.383c-3.773,0-6.844-3.07-6.844-6.844c0-3.773,3.071-6.843,6.844-6.843
			s6.844,3.07,6.844,6.843C632.137,86.313,629.066,89.383,625.293,89.383z"/>
		<path fill="#FFFFFF" d="M557.09,43.796v12.282h-1.411V43.815c-1.411,0.029-2.985,0.08-4.635,0.161
			c-15.506,0.76-12.196,4.496-22.672,12.612c0,0,60.553-0.155,60.508-0.169C586.161,55.589,590.946,43.483,557.09,43.796z"/>
	</g>
</g>
<text transform="matrix(1 0 0 1 741.301 47.9698)" fill="#FFFFFF" font-family="'Museo-700'" font-size="22.4">number of cars </text>
<text transform="matrix(1 0 0 1 741.301 74.8498)" fill="#FFFFFF" font-family="'Museo-700'" font-size="22.4">owned in the last</text>
<text transform="matrix(1 0 0 1 741.301 101.7298)" fill="#FFFFFF" font-family="'Museo-700'" font-size="22.4">20 years</text>
<g>
	<text transform="matrix(1 0 0 1 649.5276 89.0084)" fill="#C3C1B5" font-family="'Museo-700'" font-size="68.6">10</text>
</g>
<g>
	<polygon fill="#DAD7C6" points="629.626,405.8 584.509,390.701 541.652,404.915 532.473,402.7 504.047,412.428 557.175,430.183 	
		"/>
	<polyline id="fronr_wall_1_" fill="#DEDDC9" points="556.573,477.089 571,481.593 571,461.124 556.736,456.62 	"/>
	<polyline id="garage_walls_1_" fill="#DEDDC9" points="504.797,466.356 547,480.331 547,461.755 505.273,447.781 	"/>
	<polyline id="door_1_" fill="#A0002A" points="560.886,478.668 567,480.331 567,468.069 561.154,466.406 	"/>
	<polyline id="garage_1_" fill="#6D510C" points="511.108,468.566 535,476.227 535,460.808 511.268,453.147 	"/>
	<g id="dark-walls_1_">
		<polygon fill="#A89A87" points="581,416.794 581,411.477 557,419.454 557,424.771 		"/>
		<polygon fill="#A89A87" points="557,419.454 533,411.477 533,416.794 557,424.771 		"/>
		<polygon fill="#A89A87" points="630,442 630,405.744 557.373,430.152 516.075,416.515 515.805,451.828 546,461.922 546,480.015 
			555.914,477.089 555.931,465.128 557,465.476 557,465.494 557,465.485 557,465.494 557,465.476 570.013,461.14 570.076,481.593 
			629.668,461.754 629.702,442 		"/>
	</g>
	<line fill="none" stroke="#C3C1B5" stroke-miterlimit="10" x1="570.139" y1="464.161" x2="629.645" y2="444.01"/>
	<g id="windows_1_">
		<polyline fill="#F5F2F7" points="505.109,447.877 517,451.981 517,416.388 505.03,412.109 		"/>
		<polygon fill="#F5F2F7" points="605,462.884 574,473.386 574,466.175 605,455.673 		"/>
		<polygon fill="#F5F2F7" points="605,441.417 557,457.286 557,451.969 605,436.1 		"/>
		<polyline fill="#F5F2F7" points="604.031,423.108 557,438.976 557,433.659 603.982,417.791 		"/>
		<polygon fill="#F5F2F7" points="533,448.994 557,457.286 557,451.969 533,443.677 		"/>
		<polyline fill="#F5F2F7" points="532.289,430.684 557,438.976 557,433.659 532.227,425.367 		"/>
	</g>
</g>
<g>
	<text transform="matrix(1 0 0 1 647.7472 454.9189)" fill="#C3C1B5" font-family="'Museo-700'" font-size="68.6">10</text>
</g>
<text transform="matrix(1 0 0 1 739.5208 411.0799)" fill="#FFFFFF" font-family="'Museo-700'" font-size="22.4">different homes</text>
<text transform="matrix(1 0 0 1 739.5208 437.9599)" fill="#FFFFFF" font-family="'Museo-700'" font-size="22.4">or apartments</text>
<text transform="matrix(1 0 0 1 739.5208 464.8399)" fill="#FFFFFF" font-family="'Museo-700'" font-size="22.4">lived in</text>
<g id="wine-chart">
	<g>
		<g>
			<g>
				<path d="M542.391,270.564l-0.066-6.473l0.044-30.828c0,0,0.071-3.14-0.753-5.251c-1.106-2.831-3.192-4.849-3.192-4.849
					s-0.698-0.719-1.078-1.505c-0.361-0.746-0.405-1.561-0.405-1.561l-0.172-3.657l-1.719-0.265l-1.811-0.034l-1.811,0.034
					l-1.719,0.265l-0.172,3.657c0,0-0.044,0.815-0.405,1.561c-0.38,0.786-1.079,1.505-1.079,1.505s-2.086,2.018-3.192,4.849
					c-0.825,2.111-0.753,5.251-0.753,5.251l0.044,30.828l-0.066,6.473c0,0-0.042,1.194,0.078,2.363
					c0.053,0.512,0.18,1.01,0.282,1.416c0.131,0.526,0.849,0.848,0.849,0.848s0.746,0.35,1.814,0.527
					c1.884,0.311,3.878,0.448,6.131,0.448c2.018,0,4.247-0.137,6.131-0.448c1.068-0.176,1.813-0.527,1.813-0.527
					s0.718-0.323,0.849-0.848c0.101-0.406,0.229-0.904,0.282-1.416C542.433,271.758,542.391,270.564,542.391,270.564z"/>
				<path opacity="0.4" fill="#AAAAAA" enable-background="new    " d="M526.504,228.732c0.865-1.968,1.84-2.84,1.84-2.84
					s1.295,0.302,2.21,0.967c1.095,0.797,1.636,1.597,1.636,1.597v44.481c0,0-1.893,0.275-3.267,0.275s-3.144-0.55-3.144-0.55
					l0.1-40.018C525.88,232.644,525.949,229.994,526.504,228.732z M529.668,215.887l-0.051,2.41l-0.111,1.832
					c0,0-0.044,0.815-0.405,1.561c-0.38,0.786-1.078,1.505-1.078,1.505s-2.086,2.018-3.192,4.849
					c-0.825,2.111-0.753,5.251-0.753,5.251l0.044,30.828l-0.066,6.473c0,0-0.042,1.194,0.078,2.363
					c0.052,0.512,0.18,1.01,0.282,1.416c0.131,0.526,0.849,0.848,0.849,0.848s0.746,0.35,1.814,0.527
					c0.579,0.096,1.382,0.165,2.216,0.215c-0.001-0.013-0.002-0.027-0.002-0.04c-0.611-0.045-1.177-0.103-1.616-0.175
					c-1.068-0.176-1.814-0.527-1.814-0.527s-0.718-0.323-0.849-0.848c-0.101-0.406-0.229-0.904-0.282-1.416
					c-0.12-1.169-0.078-2.363-0.078-2.363l0.066-6.473l-0.044-30.828c0,0-0.071-3.14,0.753-5.251
					c1.106-2.831,3.192-4.849,3.192-4.849s0.422-0.696,0.802-1.482c0.361-0.746,0.345-1.57,0.345-1.57l0.04-1.949v-0.343
					l0.074-1.967L529.668,215.887z M530.541,216.256c-0.003,0.972-0.024,3.776-0.086,4.33c-0.064,0.57-0.372,1.008-0.172,1.253
					c0.21,0.258,0.851,0.042,1.316-0.206c0.298-0.159,1.273-0.578,1.273-0.578v-4.872l-1.434,0.027
					C531.078,216.21,530.782,216.229,530.541,216.256z M538.791,275.743c-0.438,0.072-1.005,0.13-1.616,0.175
					c-0.001,0.013-0.002,0.027-0.002,0.04c0.834-0.05,1.637-0.12,2.216-0.216c1.068-0.176,1.814-0.527,1.814-0.527
					s0.718-0.323,0.849-0.848c0.101-0.406,0.229-0.904,0.282-1.416c0.12-1.169,0.078-2.363,0.078-2.363l-0.066-6.473l0.044-30.828
					c0,0,0.071-3.14-0.753-5.251c-1.106-2.831-3.192-4.849-3.192-4.849s-0.698-0.719-1.079-1.505
					c-0.361-0.746-0.405-1.561-0.405-1.561l-0.131-3.682l-0.097,0.006l-0.034,3.691c0,0-0.016,0.824,0.345,1.57
					c0.38,0.786,0.802,1.482,0.802,1.482s2.086,2.018,3.192,4.849c0.825,2.111,0.753,5.251,0.753,5.251l-0.044,30.828l0.066,6.473
					c0,0,0.042,1.194-0.078,2.363c-0.052,0.512-0.18,1.01-0.282,1.416c-0.131,0.526-0.849,0.848-0.849,0.848
					S539.859,275.567,538.791,275.743z"/>
				<path fill="#8D44AC" d="M524.511,232.721c0,0,6.553-0.159,8.727-0.155s8.668,0.186,8.668,0.186l-0.031,19.82
					c-2.473,0.45-6.52,0.5-8.679,0.49c-2.182-0.01-6.839-0.009-8.685-0.569V232.721z"/>
				<path fill="#8D44AC" d="M536.746,207.382c0,0,0.073-0.064,0.088-0.111c0.029-0.093,0.026-0.182,0.026-0.182
					s-0.003-1.636-0.045-1.842c-0.032-0.157-0.133-0.173-0.133-0.173s-0.067-0.023-0.098-0.097s-0.025-0.198-0.025-0.198l0.029-0.39
					c0,0,0.109-0.681-0.371-0.829c-0.192-0.059-0.363-0.115-0.609-0.134c-0.879-0.068-1.63-0.152-2.368-0.152
					c-0.939,0-1.49,0.084-2.368,0.152c-0.246,0.019-0.417,0.075-0.609,0.134c-0.48,0.148-0.371,0.829-0.371,0.829l0.029,0.39
					c0,0,0.006,0.125-0.025,0.198c-0.031,0.074-0.099,0.097-0.099,0.097s-0.101,0.016-0.133,0.173
					c-0.042,0.206-0.045,1.842-0.045,1.842s-0.004,0.089,0.025,0.182c0.015,0.047,0.088,0.111,0.088,0.111s0.057,0.074,0.071,0.212
					c0.02,0.185-0.156,8.846-0.156,8.846s2.334-0.152,3.701-0.152c1.297,0,3.483,0.152,3.483,0.152s-0.175-8.661-0.156-8.846
					C536.689,207.455,536.746,207.382,536.746,207.382z"/>
				<path fill="#6E2F31" d="M529.882,205.023c0,0,1.51-0.129,3.4-0.138c1.778-0.009,3.329,0.136,3.329,0.136l-0.047-0.172
					c0,0-1.8-0.177-3.282-0.177c-1.397,0-3.35,0.171-3.35,0.171L529.882,205.023z"/>
				<path fill="#6E2F31" d="M529.73,207.382l0.037,0.069c2.224-0.212,2.223-0.247,3.501-0.263c1.434-0.018,3.47,0.205,3.47,0.205
					l0.069-0.076l0.039-0.092c0,0-1.915-0.291-3.596-0.253c-1.594,0.036-3.596,0.324-3.596,0.324L529.73,207.382z"/>
			</g>
			<g>
				<path d="M598.391,265.564l-0.066-6.473l0.044-30.828c0,0,0.071-3.14-0.753-5.251c-1.106-2.831-3.192-4.849-3.192-4.849
					s-0.698-0.719-1.078-1.505c-0.361-0.746-0.405-1.561-0.405-1.561l-0.172-3.657l-1.719-0.265l-1.811-0.034l-1.811,0.034
					l-1.719,0.265l-0.172,3.657c0,0-0.044,0.815-0.405,1.561c-0.38,0.786-1.079,1.505-1.079,1.505s-2.086,2.018-3.192,4.849
					c-0.825,2.111-0.753,5.251-0.753,5.251l0.044,30.828l-0.066,6.473c0,0-0.042,1.194,0.078,2.363
					c0.053,0.512,0.18,1.01,0.282,1.416c0.131,0.526,0.849,0.848,0.849,0.848s0.746,0.35,1.814,0.527
					c1.884,0.311,3.878,0.448,6.131,0.448c2.018,0,4.247-0.137,6.131-0.448c1.068-0.176,1.813-0.527,1.813-0.527
					s0.718-0.323,0.849-0.848c0.101-0.406,0.229-0.904,0.282-1.416C598.433,266.758,598.391,265.564,598.391,265.564z"/>
				<path opacity="0.4" fill="#AAAAAA" enable-background="new    " d="M582.504,223.732c0.865-1.968,1.84-2.84,1.84-2.84
					s1.295,0.302,2.21,0.967c1.095,0.797,1.636,1.597,1.636,1.597v44.481c0,0-1.893,0.275-3.267,0.275s-3.144-0.55-3.144-0.55
					l0.1-40.018C581.88,227.644,581.949,224.994,582.504,223.732z M585.668,210.887l-0.051,2.41l-0.111,1.832
					c0,0-0.044,0.815-0.405,1.561c-0.38,0.786-1.078,1.505-1.078,1.505s-2.086,2.018-3.192,4.849
					c-0.825,2.111-0.753,5.251-0.753,5.251l0.044,30.828l-0.066,6.473c0,0-0.042,1.194,0.078,2.363
					c0.052,0.512,0.18,1.01,0.282,1.416c0.131,0.526,0.849,0.848,0.849,0.848s0.746,0.35,1.814,0.527
					c0.579,0.096,1.382,0.165,2.216,0.215c-0.001-0.013-0.002-0.027-0.002-0.04c-0.611-0.045-1.177-0.103-1.616-0.175
					c-1.068-0.176-1.814-0.527-1.814-0.527s-0.718-0.323-0.849-0.848c-0.101-0.406-0.229-0.904-0.282-1.416
					c-0.12-1.169-0.078-2.363-0.078-2.363l0.066-6.473l-0.044-30.828c0,0-0.071-3.14,0.753-5.251
					c1.106-2.831,3.192-4.849,3.192-4.849s0.422-0.696,0.802-1.482c0.361-0.746,0.345-1.57,0.345-1.57l0.04-1.949v-0.343
					l0.074-1.967L585.668,210.887z M586.541,211.256c-0.003,0.972-0.024,3.776-0.086,4.33c-0.064,0.57-0.372,1.008-0.172,1.253
					c0.21,0.258,0.851,0.042,1.316-0.206c0.298-0.159,1.273-0.578,1.273-0.578v-4.872l-1.434,0.027
					C587.078,211.21,586.782,211.229,586.541,211.256z M594.791,270.743c-0.438,0.072-1.005,0.13-1.616,0.175
					c-0.001,0.013-0.002,0.027-0.002,0.04c0.834-0.05,1.637-0.12,2.216-0.216c1.068-0.176,1.814-0.527,1.814-0.527
					s0.718-0.323,0.849-0.848c0.101-0.406,0.229-0.904,0.282-1.416c0.12-1.169,0.078-2.363,0.078-2.363l-0.066-6.473l0.044-30.828
					c0,0,0.071-3.14-0.753-5.251c-1.106-2.831-3.192-4.849-3.192-4.849s-0.698-0.719-1.079-1.505
					c-0.361-0.746-0.405-1.561-0.405-1.561l-0.131-3.682l-0.097,0.006l-0.034,3.691c0,0-0.016,0.824,0.345,1.57
					c0.38,0.786,0.802,1.482,0.802,1.482s2.086,2.018,3.192,4.849c0.825,2.111,0.753,5.251,0.753,5.251l-0.044,30.828l0.066,6.473
					c0,0,0.042,1.194-0.078,2.363c-0.052,0.512-0.18,1.01-0.282,1.416c-0.131,0.526-0.849,0.848-0.849,0.848
					S595.859,270.567,594.791,270.743z"/>
				<path fill="#8D44AC" d="M580.511,227.721c0,0,6.553-0.159,8.727-0.155s8.668,0.186,8.668,0.186l-0.031,19.82
					c-2.473,0.45-6.52,0.5-8.679,0.49c-2.182-0.01-6.839-0.009-8.685-0.569V227.721z"/>
				<path fill="#8D44AC" d="M592.746,202.382c0,0,0.073-0.064,0.088-0.111c0.029-0.093,0.026-0.182,0.026-0.182
					s-0.003-1.636-0.045-1.842c-0.032-0.157-0.133-0.173-0.133-0.173s-0.067-0.023-0.098-0.097s-0.025-0.198-0.025-0.198l0.029-0.39
					c0,0,0.109-0.681-0.371-0.829c-0.192-0.059-0.363-0.115-0.609-0.134c-0.879-0.068-1.63-0.152-2.368-0.152
					c-0.939,0-1.49,0.084-2.368,0.152c-0.246,0.019-0.417,0.075-0.609,0.134c-0.48,0.148-0.371,0.829-0.371,0.829l0.029,0.39
					c0,0,0.006,0.125-0.025,0.198c-0.031,0.074-0.099,0.097-0.099,0.097s-0.101,0.016-0.133,0.173
					c-0.042,0.206-0.045,1.842-0.045,1.842s-0.004,0.089,0.025,0.182c0.015,0.047,0.088,0.111,0.088,0.111s0.057,0.074,0.071,0.212
					c0.02,0.185-0.156,8.846-0.156,8.846s2.334-0.152,3.701-0.152c1.297,0,3.483,0.152,3.483,0.152s-0.175-8.661-0.156-8.846
					C592.689,202.455,592.746,202.382,592.746,202.382z"/>
				<path fill="#6E2F31" d="M585.882,200.023c0,0,1.51-0.129,3.4-0.138c1.778-0.009,3.329,0.136,3.329,0.136l-0.047-0.172
					c0,0-1.8-0.177-3.282-0.177c-1.397,0-3.35,0.171-3.35,0.171L585.882,200.023z"/>
				<path fill="#6E2F31" d="M585.73,202.382l0.037,0.069c2.224-0.212,2.223-0.247,3.501-0.263c1.434-0.018,3.47,0.205,3.47,0.205
					l0.069-0.076l0.039-0.092c0,0-1.915-0.291-3.596-0.253c-1.594,0.036-3.596,0.324-3.596,0.324L585.73,202.382z"/>
			</g>
			<g>
				<path d="M584.391,272.564l-0.066-6.473l0.044-30.828c0,0,0.071-3.14-0.753-5.251c-1.106-2.831-3.192-4.849-3.192-4.849
					s-0.698-0.719-1.078-1.505c-0.361-0.746-0.405-1.561-0.405-1.561l-0.172-3.657l-1.719-0.265l-1.811-0.034l-1.811,0.034
					l-1.719,0.265l-0.172,3.657c0,0-0.044,0.815-0.405,1.561c-0.38,0.786-1.079,1.505-1.079,1.505s-2.086,2.018-3.192,4.849
					c-0.825,2.111-0.753,5.251-0.753,5.251l0.044,30.828l-0.066,6.473c0,0-0.042,1.194,0.078,2.363
					c0.053,0.512,0.18,1.01,0.282,1.416c0.131,0.526,0.849,0.848,0.849,0.848s0.746,0.35,1.814,0.527
					c1.884,0.311,3.878,0.448,6.131,0.448c2.018,0,4.247-0.137,6.131-0.448c1.068-0.176,1.813-0.527,1.813-0.527
					s0.718-0.323,0.849-0.848c0.101-0.406,0.229-0.904,0.282-1.416C584.433,273.758,584.391,272.564,584.391,272.564z"/>
				<path opacity="0.4" fill="#AAAAAA" enable-background="new    " d="M568.504,230.732c0.865-1.968,1.84-2.84,1.84-2.84
					s1.295,0.302,2.21,0.967c1.095,0.797,1.636,1.597,1.636,1.597v44.481c0,0-1.893,0.275-3.267,0.275s-3.144-0.55-3.144-0.55
					l0.1-40.018C567.88,234.644,567.949,231.994,568.504,230.732z M571.668,217.887l-0.051,2.41l-0.111,1.832
					c0,0-0.044,0.815-0.405,1.561c-0.38,0.786-1.078,1.505-1.078,1.505s-2.086,2.018-3.192,4.849
					c-0.825,2.111-0.753,5.251-0.753,5.251l0.044,30.828l-0.066,6.473c0,0-0.042,1.194,0.078,2.363
					c0.052,0.512,0.18,1.01,0.282,1.416c0.131,0.526,0.849,0.848,0.849,0.848s0.746,0.35,1.814,0.527
					c0.579,0.096,1.382,0.165,2.216,0.215c-0.001-0.013-0.002-0.027-0.002-0.04c-0.611-0.045-1.177-0.103-1.616-0.175
					c-1.068-0.176-1.814-0.527-1.814-0.527s-0.718-0.323-0.849-0.848c-0.101-0.406-0.229-0.904-0.282-1.416
					c-0.12-1.169-0.078-2.363-0.078-2.363l0.066-6.473l-0.044-30.828c0,0-0.071-3.14,0.753-5.251
					c1.106-2.831,3.192-4.849,3.192-4.849s0.422-0.696,0.802-1.482c0.361-0.746,0.345-1.57,0.345-1.57l0.04-1.949v-0.343
					l0.074-1.967L571.668,217.887z M572.541,218.256c-0.003,0.972-0.024,3.776-0.086,4.33c-0.064,0.57-0.372,1.008-0.172,1.253
					c0.21,0.258,0.851,0.042,1.316-0.206c0.298-0.159,1.273-0.578,1.273-0.578v-4.872l-1.434,0.027
					C573.078,218.21,572.782,218.229,572.541,218.256z M580.791,277.743c-0.438,0.072-1.005,0.13-1.616,0.175
					c-0.001,0.013-0.002,0.027-0.002,0.04c0.834-0.05,1.637-0.12,2.216-0.216c1.068-0.176,1.814-0.527,1.814-0.527
					s0.718-0.323,0.849-0.848c0.101-0.406,0.229-0.904,0.282-1.416c0.12-1.169,0.078-2.363,0.078-2.363l-0.066-6.473l0.044-30.828
					c0,0,0.071-3.14-0.753-5.251c-1.106-2.831-3.192-4.849-3.192-4.849s-0.698-0.719-1.079-1.505
					c-0.361-0.746-0.405-1.561-0.405-1.561l-0.131-3.682l-0.097,0.006l-0.034,3.691c0,0-0.016,0.824,0.345,1.57
					c0.38,0.786,0.802,1.482,0.802,1.482s2.086,2.018,3.192,4.849c0.825,2.111,0.753,5.251,0.753,5.251l-0.044,30.828l0.066,6.473
					c0,0,0.042,1.194-0.078,2.363c-0.052,0.512-0.18,1.01-0.282,1.416c-0.131,0.526-0.849,0.848-0.849,0.848
					S581.859,277.567,580.791,277.743z"/>
				<path fill="#8D44AC" d="M566.511,234.721c0,0,6.553-0.159,8.727-0.155s8.668,0.186,8.668,0.186l-0.031,19.82
					c-2.473,0.45-6.52,0.5-8.679,0.49c-2.182-0.01-6.839-0.009-8.685-0.569V234.721z"/>
				<path fill="#8D44AC" d="M578.746,209.382c0,0,0.073-0.064,0.088-0.111c0.029-0.093,0.026-0.182,0.026-0.182
					s-0.003-1.636-0.045-1.842c-0.032-0.157-0.133-0.173-0.133-0.173s-0.067-0.023-0.098-0.097s-0.025-0.198-0.025-0.198l0.029-0.39
					c0,0,0.109-0.681-0.371-0.829c-0.192-0.059-0.363-0.115-0.609-0.134c-0.879-0.068-1.63-0.152-2.368-0.152
					c-0.939,0-1.49,0.084-2.368,0.152c-0.246,0.019-0.417,0.075-0.609,0.134c-0.48,0.148-0.371,0.829-0.371,0.829l0.029,0.39
					c0,0,0.006,0.125-0.025,0.198c-0.031,0.074-0.099,0.097-0.099,0.097s-0.101,0.016-0.133,0.173
					c-0.042,0.206-0.045,1.842-0.045,1.842s-0.004,0.089,0.025,0.182c0.015,0.047,0.088,0.111,0.088,0.111s0.057,0.074,0.071,0.212
					c0.02,0.185-0.156,8.846-0.156,8.846s2.334-0.152,3.701-0.152c1.297,0,3.483,0.152,3.483,0.152s-0.175-8.661-0.156-8.846
					C578.689,209.455,578.746,209.382,578.746,209.382z"/>
				<path fill="#6E2F31" d="M571.882,207.023c0,0,1.51-0.129,3.4-0.138c1.778-0.009,3.329,0.136,3.329,0.136l-0.047-0.172
					c0,0-1.8-0.177-3.282-0.177c-1.397,0-3.35,0.171-3.35,0.171L571.882,207.023z"/>
				<path fill="#6E2F31" d="M571.73,209.382l0.037,0.069c2.224-0.212,2.223-0.247,3.501-0.263c1.434-0.018,3.47,0.205,3.47,0.205
					l0.069-0.076l0.039-0.092c0,0-1.915-0.291-3.596-0.253c-1.594,0.036-3.596,0.324-3.596,0.324L571.73,209.382z"/>
			</g>
			<g>
				<path d="M529.391,272.564l-0.066-6.473l0.044-30.828c0,0,0.071-3.14-0.753-5.251c-1.106-2.831-3.192-4.849-3.192-4.849
					s-0.698-0.719-1.078-1.505c-0.361-0.746-0.405-1.561-0.405-1.561l-0.172-3.657l-1.719-0.265l-1.811-0.034l-1.811,0.034
					l-1.719,0.265l-0.172,3.657c0,0-0.044,0.815-0.405,1.561c-0.38,0.786-1.079,1.505-1.079,1.505s-2.086,2.018-3.192,4.849
					c-0.825,2.111-0.753,5.251-0.753,5.251l0.044,30.828l-0.066,6.473c0,0-0.042,1.194,0.078,2.363
					c0.053,0.512,0.18,1.01,0.282,1.416c0.131,0.526,0.849,0.848,0.849,0.848s0.746,0.35,1.814,0.527
					c1.884,0.311,3.878,0.448,6.131,0.448c2.018,0,4.247-0.137,6.131-0.448c1.068-0.176,1.813-0.527,1.813-0.527
					s0.718-0.323,0.849-0.848c0.101-0.406,0.229-0.904,0.282-1.416C529.433,273.758,529.391,272.564,529.391,272.564z"/>
				<path opacity="0.4" fill="#AAAAAA" enable-background="new    " d="M513.504,230.732c0.865-1.968,1.84-2.84,1.84-2.84
					s1.295,0.302,2.21,0.967c1.095,0.797,1.636,1.597,1.636,1.597v44.481c0,0-1.893,0.275-3.267,0.275s-3.144-0.55-3.144-0.55
					l0.1-40.018C512.88,234.644,512.949,231.994,513.504,230.732z M516.668,217.887l-0.051,2.41l-0.111,1.832
					c0,0-0.044,0.815-0.405,1.561c-0.38,0.786-1.078,1.505-1.078,1.505s-2.086,2.018-3.192,4.849
					c-0.825,2.111-0.753,5.251-0.753,5.251l0.044,30.828l-0.066,6.473c0,0-0.042,1.194,0.078,2.363
					c0.053,0.512,0.18,1.01,0.282,1.416c0.131,0.526,0.849,0.848,0.849,0.848s0.746,0.35,1.814,0.527
					c0.579,0.096,1.382,0.165,2.216,0.215c-0.001-0.013-0.002-0.027-0.002-0.04c-0.611-0.045-1.177-0.103-1.616-0.175
					c-1.068-0.176-1.814-0.527-1.814-0.527s-0.718-0.323-0.849-0.848c-0.101-0.406-0.229-0.904-0.282-1.416
					c-0.12-1.169-0.078-2.363-0.078-2.363l0.066-6.473l-0.044-30.828c0,0-0.071-3.14,0.753-5.251
					c1.106-2.831,3.192-4.849,3.192-4.849s0.422-0.696,0.802-1.482c0.361-0.746,0.345-1.57,0.345-1.57l0.04-1.949v-0.343
					l0.074-1.967L516.668,217.887z M517.541,218.256c-0.003,0.972-0.024,3.776-0.086,4.33c-0.064,0.57-0.372,1.008-0.172,1.253
					c0.21,0.258,0.851,0.042,1.316-0.206c0.298-0.159,1.273-0.578,1.273-0.578v-4.872l-1.434,0.027
					C518.078,218.21,517.782,218.229,517.541,218.256z M525.791,277.743c-0.438,0.072-1.005,0.13-1.616,0.175
					c-0.001,0.013-0.002,0.027-0.002,0.04c0.834-0.05,1.637-0.12,2.216-0.216c1.068-0.176,1.814-0.527,1.814-0.527
					s0.718-0.323,0.849-0.848c0.101-0.406,0.229-0.904,0.282-1.416c0.12-1.169,0.078-2.363,0.078-2.363l-0.066-6.473l0.044-30.828
					c0,0,0.071-3.14-0.753-5.251c-1.106-2.831-3.192-4.849-3.192-4.849s-0.698-0.719-1.079-1.505
					c-0.361-0.746-0.405-1.561-0.405-1.561l-0.131-3.682l-0.097,0.006l-0.034,3.691c0,0-0.016,0.824,0.345,1.57
					c0.38,0.786,0.802,1.482,0.802,1.482s2.086,2.018,3.192,4.849c0.825,2.111,0.753,5.251,0.753,5.251l-0.044,30.828l0.066,6.473
					c0,0,0.042,1.194-0.078,2.363c-0.052,0.512-0.18,1.01-0.282,1.416c-0.131,0.526-0.849,0.848-0.849,0.848
					S526.859,277.567,525.791,277.743z"/>
				<path fill="#8D44AC" d="M511.511,234.721c0,0,6.553-0.159,8.727-0.155s8.668,0.186,8.668,0.186l-0.031,19.82
					c-2.473,0.45-6.52,0.5-8.679,0.49c-2.182-0.01-6.839-0.009-8.685-0.569V234.721z"/>
				<path fill="#8D44AC" d="M523.746,209.382c0,0,0.073-0.064,0.088-0.111c0.029-0.093,0.026-0.182,0.026-0.182
					s-0.003-1.636-0.045-1.842c-0.032-0.157-0.133-0.173-0.133-0.173s-0.067-0.023-0.098-0.097s-0.025-0.198-0.025-0.198l0.029-0.39
					c0,0,0.109-0.681-0.371-0.829c-0.192-0.059-0.363-0.115-0.609-0.134c-0.879-0.068-1.63-0.152-2.368-0.152
					c-0.939,0-1.49,0.084-2.368,0.152c-0.246,0.019-0.417,0.075-0.609,0.134c-0.48,0.148-0.371,0.829-0.371,0.829l0.029,0.39
					c0,0,0.006,0.125-0.025,0.198c-0.031,0.074-0.099,0.097-0.099,0.097s-0.101,0.016-0.133,0.173
					c-0.042,0.206-0.045,1.842-0.045,1.842s-0.004,0.089,0.025,0.182c0.015,0.047,0.088,0.111,0.088,0.111s0.057,0.074,0.071,0.212
					c0.02,0.185-0.156,8.846-0.156,8.846s2.334-0.152,3.701-0.152c1.297,0,3.483,0.152,3.483,0.152s-0.175-8.661-0.156-8.846
					C523.689,209.455,523.746,209.382,523.746,209.382z"/>
				<path fill="#6E2F31" d="M516.882,207.023c0,0,1.51-0.129,3.4-0.138c1.778-0.009,3.329,0.136,3.329,0.136l-0.047-0.172
					c0,0-1.8-0.177-3.282-0.177c-1.397,0-3.35,0.171-3.35,0.171L516.882,207.023z"/>
				<path fill="#6E2F31" d="M516.73,209.382l0.037,0.069c2.224-0.212,2.223-0.247,3.501-0.263c1.434-0.018,3.47,0.205,3.47,0.205
					l0.069-0.076l0.039-0.092c0,0-1.915-0.291-3.596-0.253c-1.594,0.036-3.596,0.324-3.596,0.324L516.73,209.382z"/>
			</g>
			<g>
				<path d="M558.385,280.64l-0.077-7.542l0.051-35.915c0,0,0.083-3.658-0.878-6.118c-1.289-3.299-3.719-5.649-3.719-5.649
					s-0.813-0.838-1.256-1.753c-0.421-0.869-0.472-1.819-0.472-1.819l-0.201-4.261l-2.003-0.309l-2.11-0.039l-2.11,0.039
					l-2.003,0.309l-0.201,4.261c0,0-0.051,0.95-0.472,1.819c-0.443,0.916-1.256,1.753-1.256,1.753s-2.43,2.351-3.719,5.649
					c-0.961,2.46-0.878,6.118-0.878,6.118l0.051,35.915l-0.077,7.542c0,0-0.049,1.391,0.091,2.753
					c0.061,0.596,0.21,1.177,0.328,1.649c0.153,0.612,0.989,0.988,0.989,0.988s0.869,0.408,2.113,0.613
					c2.195,0.362,4.518,0.522,7.143,0.522c2.351,0,4.948-0.16,7.143-0.522c1.244-0.205,2.113-0.613,2.113-0.613
					s0.836-0.376,0.989-0.988c0.118-0.473,0.267-1.053,0.328-1.649C558.434,282.031,558.385,280.64,558.385,280.64z"/>
				<path opacity="0.4" fill="#AAAAAA" enable-background="new    " d="M539.876,231.905c1.008-2.292,2.144-3.309,2.144-3.309
					s1.508,0.351,2.575,1.127c1.276,0.928,1.906,1.86,1.906,1.86v51.821c0,0-2.205,0.32-3.806,0.32s-3.663-0.64-3.663-0.64
					l0.116-46.622C539.149,236.462,539.23,233.375,539.876,231.905z M543.562,216.94l-0.06,2.807l-0.13,2.135
					c0,0-0.051,0.95-0.472,1.819c-0.443,0.916-1.256,1.753-1.256,1.753s-2.43,2.351-3.719,5.649
					c-0.961,2.46-0.878,6.118-0.878,6.118l0.051,35.915l-0.077,7.542c0,0-0.049,1.391,0.091,2.753
					c0.061,0.596,0.21,1.176,0.328,1.649c0.153,0.613,0.989,0.988,0.989,0.988s0.869,0.408,2.113,0.614
					c0.675,0.111,1.61,0.192,2.582,0.251c-0.001-0.016-0.002-0.031-0.003-0.047c-0.712-0.053-1.372-0.12-1.882-0.204
					c-1.244-0.205-2.113-0.614-2.113-0.614s-0.836-0.376-0.989-0.988c-0.118-0.473-0.267-1.053-0.328-1.649
					c-0.14-1.362-0.091-2.753-0.091-2.753l0.077-7.542l-0.051-35.915c0,0-0.083-3.658,0.878-6.118
					c1.289-3.299,3.719-5.649,3.719-5.649s0.491-0.81,0.934-1.726c0.421-0.869,0.402-1.829,0.402-1.829l0.047-2.27v-0.4l0.086-2.292
					L543.562,216.94z M544.58,217.37c-0.003,1.132-0.028,4.4-0.101,5.044c-0.075,0.664-0.433,1.174-0.2,1.46
					c0.245,0.301,0.991,0.049,1.534-0.24c0.347-0.185,1.483-0.674,1.483-0.674v-5.676l-1.671,0.031
					C545.205,217.316,544.861,217.338,544.58,217.37z M554.191,286.674c-0.511,0.084-1.17,0.151-1.882,0.204
					c-0.001,0.016-0.002,0.031-0.003,0.047c0.972-0.059,1.907-0.14,2.582-0.251c1.244-0.205,2.113-0.613,2.113-0.613
					s0.836-0.376,0.989-0.988c0.118-0.473,0.267-1.053,0.328-1.649c0.14-1.362,0.091-2.753,0.091-2.753l-0.077-7.542l0.051-35.915
					c0,0,0.083-3.658-0.878-6.118c-1.289-3.299-3.719-5.649-3.719-5.649s-0.813-0.838-1.257-1.753
					c-0.421-0.869-0.472-1.819-0.472-1.819l-0.152-4.29l-0.113,0.007l-0.04,4.3c0,0-0.018,0.96,0.402,1.829
					c0.443,0.916,0.934,1.726,0.934,1.726s2.43,2.351,3.719,5.649c0.961,2.46,0.878,6.118,0.878,6.118l-0.051,35.915l0.077,7.542
					c0,0,0.049,1.391-0.091,2.753c-0.061,0.596-0.21,1.177-0.328,1.649c-0.153,0.613-0.989,0.988-0.989,0.988
					S555.435,286.468,554.191,286.674z"/>
				<path fill="#8D44AC" d="M537.554,236.552c0,0,7.634-0.185,10.167-0.181c2.533,0.005,10.099,0.217,10.099,0.217l-0.036,23.091
					c-2.882,0.524-7.596,0.583-10.111,0.571c-2.542-0.011-7.967-0.011-10.118-0.663L537.554,236.552L537.554,236.552z"/>
				<path fill="#8D44AC" d="M551.808,207.031c0,0,0.085-0.075,0.102-0.13c0.034-0.109,0.03-0.212,0.03-0.212
					s-0.003-1.906-0.052-2.146c-0.037-0.182-0.155-0.202-0.155-0.202s-0.079-0.026-0.115-0.113
					c-0.036-0.086-0.029-0.231-0.029-0.231l0.033-0.455c0,0,0.127-0.794-0.432-0.966c-0.224-0.069-0.423-0.134-0.71-0.156
					c-1.024-0.079-1.898-0.177-2.759-0.177c-1.095,0-1.736,0.097-2.759,0.177c-0.287,0.022-0.486,0.087-0.71,0.156
					c-0.559,0.172-0.432,0.966-0.432,0.966l0.033,0.455c0,0,0.006,0.146-0.029,0.231c-0.036,0.086-0.115,0.113-0.115,0.113
					s-0.117,0.019-0.155,0.202c-0.049,0.24-0.052,2.146-0.052,2.146s-0.004,0.103,0.03,0.212c0.017,0.055,0.102,0.13,0.102,0.13
					s0.066,0.086,0.083,0.247c0.023,0.215-0.181,10.306-0.181,10.306s2.719-0.177,4.312-0.177c1.512,0,4.058,0.177,4.058,0.177
					s-0.204-10.091-0.181-10.306C551.742,207.117,551.808,207.031,551.808,207.031z"/>
				<path fill="#6E2F31" d="M543.811,204.283c0,0,1.759-0.15,3.961-0.161c2.071-0.01,3.878,0.159,3.878,0.159l-0.055-0.2
					c0,0-2.097-0.206-3.823-0.206c-1.628,0-3.903,0.2-3.903,0.2L543.811,204.283z"/>
				<path fill="#6E2F31" d="M543.635,207.031l0.043,0.081c2.591-0.247,2.59-0.287,4.079-0.306c1.671-0.021,4.043,0.239,4.043,0.239
					l0.08-0.089l0.045-0.108c0,0-2.231-0.339-4.189-0.295c-1.857,0.042-4.189,0.378-4.189,0.378L543.635,207.031z"/>
			</g>
			<g>
				<path d="M572.383,284.132l-0.083-8.129l0.055-38.712c0,0,0.09-3.943-0.946-6.594c-1.389-3.556-4.009-6.089-4.009-6.089
					s-0.877-0.903-1.354-1.89c-0.453-0.937-0.509-1.961-0.509-1.961l-0.216-4.592l-2.159-0.333l-2.274-0.042l-2.274,0.042
					l-2.159,0.333l-0.216,4.592c0,0-0.055,1.024-0.509,1.961c-0.478,0.987-1.354,1.89-1.354,1.89s-2.62,2.534-4.009,6.089
					c-1.036,2.651-0.946,6.594-0.946,6.594l0.055,38.712l-0.083,8.129c0,0-0.052,1.499,0.098,2.967
					c0.066,0.643,0.227,1.268,0.354,1.778c0.165,0.66,1.066,1.065,1.066,1.065s0.937,0.44,2.277,0.661
					c2.365,0.391,4.869,0.563,7.699,0.563c2.534,0,5.333-0.172,7.699-0.563c1.341-0.221,2.277-0.661,2.277-0.661
					s0.901-0.405,1.066-1.065c0.127-0.51,0.288-1.135,0.354-1.778C572.435,285.631,572.383,284.132,572.383,284.132z"/>
				<path opacity="0.4" fill="#AAAAAA" enable-background="new    " d="M552.433,231.602c1.086-2.471,2.311-3.566,2.311-3.566
					s1.626,0.379,2.775,1.215c1.375,1,2.055,2.005,2.055,2.005v55.856c0,0-2.377,0.345-4.102,0.345s-3.949-0.69-3.949-0.69
					l0.125-50.252C551.649,236.514,551.736,233.187,552.433,231.602z M556.405,215.472l-0.064,3.026l-0.14,2.301
					c0,0-0.055,1.024-0.509,1.961c-0.478,0.987-1.354,1.89-1.354,1.89s-2.62,2.534-4.008,6.089
					c-1.036,2.651-0.946,6.594-0.946,6.594l0.055,38.712l-0.083,8.129c0,0-0.052,1.499,0.098,2.967
					c0.066,0.643,0.227,1.268,0.354,1.778c0.165,0.66,1.066,1.065,1.066,1.065s0.937,0.44,2.277,0.661
					c0.727,0.12,1.736,0.207,2.783,0.27c-0.001-0.017-0.002-0.034-0.003-0.051c-0.767-0.057-1.478-0.129-2.029-0.22
					c-1.341-0.221-2.277-0.661-2.277-0.661s-0.901-0.405-1.066-1.065c-0.127-0.51-0.288-1.135-0.354-1.778
					c-0.151-1.468-0.098-2.967-0.098-2.967l0.083-8.129l-0.055-38.712c0,0-0.09-3.943,0.946-6.594
					c1.389-3.556,4.009-6.089,4.009-6.089s0.529-0.874,1.007-1.861c0.453-0.937,0.434-1.972,0.434-1.972l0.051-2.447v-0.431
					l0.092-2.47L556.405,215.472z M557.502,215.935c-0.004,1.22-0.03,4.742-0.109,5.437c-0.081,0.716-0.466,1.266-0.216,1.574
					c0.264,0.325,1.069,0.052,1.653-0.259c0.374-0.199,1.598-0.726,1.598-0.726v-6.118l-1.801,0.034
					C558.176,215.877,557.805,215.901,557.502,215.935z M567.862,290.635c-0.55,0.091-1.262,0.163-2.029,0.22
					c-0.001,0.017-0.002,0.034-0.003,0.051c1.047-0.063,2.056-0.15,2.783-0.271c1.341-0.221,2.277-0.661,2.277-0.661
					s0.902-0.405,1.066-1.065c0.127-0.51,0.288-1.135,0.354-1.778c0.151-1.468,0.098-2.967,0.098-2.967l-0.083-8.129l0.055-38.712
					c0,0,0.09-3.943-0.946-6.594c-1.389-3.556-4.008-6.089-4.008-6.089s-0.877-0.903-1.354-1.89
					c-0.453-0.937-0.509-1.961-0.509-1.961l-0.164-4.624l-0.121,0.007l-0.043,4.634c0,0-0.02,1.035,0.434,1.972
					c0.478,0.987,1.007,1.861,1.007,1.861s2.62,2.534,4.009,6.089c1.036,2.651,0.946,6.594,0.946,6.594l-0.055,38.712l0.083,8.129
					c0,0,0.052,1.499-0.098,2.967c-0.066,0.643-0.227,1.268-0.354,1.778c-0.165,0.66-1.066,1.065-1.066,1.065
					S569.203,290.414,567.862,290.635z"/>
				<path fill="#8D44AC" d="M549.93,236.61c0,0,8.228-0.2,10.959-0.195c2.731,0.005,10.885,0.234,10.885,0.234l-0.039,24.889
					c-3.106,0.565-8.187,0.628-10.898,0.616c-2.74-0.012-8.587-0.011-10.906-0.714L549.93,236.61L549.93,236.61z"/>
				<path fill="#8D44AC" d="M565.294,204.791c0,0,0.092-0.081,0.11-0.14c0.037-0.117,0.032-0.229,0.032-0.229
					s-0.004-2.055-0.056-2.314c-0.04-0.197-0.167-0.217-0.167-0.217s-0.085-0.028-0.124-0.121c-0.039-0.092-0.032-0.249-0.032-0.249
					l0.036-0.49c0,0,0.137-0.856-0.466-1.042c-0.241-0.074-0.456-0.144-0.765-0.168c-1.103-0.085-2.046-0.19-2.974-0.19
					c-1.18,0-1.871,0.105-2.974,0.19c-0.309,0.024-0.524,0.094-0.765,0.168c-0.602,0.186-0.466,1.042-0.466,1.042l0.036,0.49
					c0,0,0.007,0.157-0.032,0.249c-0.039,0.093-0.124,0.121-0.124,0.121s-0.127,0.021-0.167,0.217
					c-0.053,0.259-0.056,2.314-0.056,2.314s-0.005,0.111,0.032,0.229c0.018,0.059,0.11,0.14,0.11,0.14s0.071,0.092,0.09,0.266
					c0.024,0.232-0.195,11.108-0.195,11.108s2.931-0.191,4.648-0.191c1.629,0,4.374,0.191,4.374,0.191s-0.22-10.876-0.195-11.108
					C565.222,204.884,565.294,204.791,565.294,204.791z"/>
				<path fill="#6E2F31" d="M556.674,201.829c0,0,1.896-0.162,4.269-0.173c2.232-0.011,4.18,0.171,4.18,0.171l-0.059-0.215
					c0,0-2.26-0.222-4.121-0.222c-1.755,0-4.207,0.215-4.207,0.215L556.674,201.829z"/>
				<path fill="#6E2F31" d="M556.483,204.791l0.046,0.087c2.793-0.266,2.791-0.31,4.397-0.33c1.801-0.023,4.358,0.258,4.358,0.258
					l0.086-0.096l0.049-0.116c0,0-2.405-0.366-4.515-0.318c-2.001,0.045-4.515,0.407-4.515,0.407L556.483,204.791z"/>
			</g>
		</g>
		<text transform="matrix(1 0 0 1 621.6683 245.4641)" fill="#C3C1B5" font-family="'Museo-700'" font-size="52">1340</text>
		<text transform="matrix(1 0 0 1 675.4553 275.7041)" fill="#C3C1B5" font-family="'Museo-700'" font-size="25.2">cases</text>
		<text transform="matrix(1 0 0 1 765.7473 223.9449)" fill="#FFFFFF" font-family="'Museo-700'" font-size="22.4">wine consumed</text>
		<text transform="matrix(1 0 0 1 765.7473 250.8249)" fill="#FFFFFF" font-family="'Museo-700'" font-size="22.4">since leaving</text>
		<text transform="matrix(1 0 0 1 765.7473 277.7049)" fill="#FFFFFF" font-family="'Museo-700'" font-size="22.4">SoCA</text>
	</g>
</g>
<path fill="#8D44AC" d="M533.236,89.286c0-2.015,0.236-3.858-0.044-5.62c-0.837-5.265-0.385-10.458,0.415-15.666
	c0.196-1.279,0.49-2.499,1.253-3.868c-1.191,0-2.196,0.039-3.197-0.009c-1.491-0.072-2.227-0.963-2.248-2.392
	c-0.022-1.518,0.714-2.475,2.314-2.512c1.293-0.03,2.591-0.006,3.883,0.069c0.878,0.051,1.328,0.708,1.759,1.698
	c2.447-3.306,4.892-6.453,7.147-9.729c0.967-1.404,2.052-1.832,3.701-1.823c11.728,0.064,23.456,0.062,35.184,0.003
	c1.575-0.008,2.611,0.405,3.55,1.737c2.343,3.326,4.863,6.527,7.328,9.799c1.129-1.622,5.433-2.488,7.075-1.451
	c1.001,0.632,1.263,1.634,1.05,2.72c-0.202,1.03-0.81,1.79-1.949,1.847c-1.091,0.054-2.186,0.012-3.389,0.012
	c1.555,4.785,1.971,9.65,1.977,14.416c0.003,2.358-0.389,4.881-0.516,7.336c-0.056,1.085-0.009,2.176-0.009,3.417
	c-4.774,0-9.441,0-14.204,0c-0.065-0.78-0.118-1.408-0.182-2.187c-12.135,0-24.249,0-36.414,0c-0.05,0.787-0.091,1.42-0.141,2.203
	C542.871,89.286,538.186,89.286,533.236,89.286z M593.571,64.386c-3.001-3.997-5.813-7.699-8.565-11.445
	c-0.576-0.785-1.228-0.97-2.138-0.968c-11.398,0.025-22.796,0.035-34.193-0.012c-1.13-0.005-1.748,0.432-2.362,1.285
	c-2.382,3.306-4.834,6.563-7.241,9.851c-0.275,0.376-0.836,0.662-0.583,1.288C556.754,64.386,575.001,64.386,593.571,64.386z
	 M552.535,84.783c8.905,0,17.703,0,26.679,0c0.032-1.991,0.242-3.941-0.154-5.833c-8.946,0-17.705,0-26.525,0
	C552.535,80.919,552.535,82.763,552.535,84.783z M587.494,76.117c2.136,0,4.276-0.083,6.407,0.025
	c1.874,0.095,2.443-0.874,2.274-2.476c-0.1-0.951-0.422-1.882-0.675-2.813c-0.165-0.608-0.522-1.029-1.229-1.009
	c-4.971,0.137-9.819,0.709-13.842,4.055c-0.457,0.38-1.22,0.696-0.962,1.509c0.292,0.921,1.135,0.693,1.813,0.7
	C583.351,76.129,585.422,76.116,587.494,76.117z M543.96,76.109c0,0.003,0,0.006,0,0.009c2.007,0,4.015,0.022,6.022-0.011
	c0.797-0.013,1.884,0.347,2.208-0.683c0.319-1.015-0.804-1.37-1.407-1.854c-3.45-2.765-7.598-3.399-11.827-3.691
	c-2.483-0.171-2.907,0.197-3.319,2.623c-0.097,0.57-0.075,1.161-0.106,1.742c-0.068,1.282,0.481,1.905,1.825,1.877
	C539.556,76.074,541.758,76.109,543.96,76.109z M589.838,84.23c1.841,0.026,2.916-0.991,2.935-2.344
	c0.017-1.247-1.301-2.489-2.662-2.426c-1.559,0.073-2.35,1.073-2.365,2.504C587.731,83.536,588.855,84.127,589.838,84.23z
	 M541.449,79.436c-1.537,0.114-2.379,0.916-2.377,2.46c0.003,1.462,0.79,2.259,2.257,2.302c1.557,0.046,2.428-0.767,2.476-2.298
	C543.853,80.346,542.955,79.569,541.449,79.436z"/>
<path fill="#42454C" d="M593.571,64.386c-18.57,0-36.817,0-55.083,0c-0.253-0.626,0.308-0.913,0.583-1.288
	c2.408-3.288,4.859-6.545,7.241-9.851c0.615-0.853,1.233-1.29,2.362-1.285c11.398,0.047,22.795,0.037,34.193,0.012
	c0.91-0.002,1.561,0.183,2.138,0.968C587.758,56.687,590.57,60.389,593.571,64.386z M565.794,56.576
	c1.095,0,2.191,0.008,3.286-0.002c0.993-0.01,1.602-0.484,1.6-1.515c-0.002-1.042-0.648-1.494-1.621-1.501
	c-2.191-0.015-4.382-0.031-6.572,0.011c-0.986,0.019-1.593,0.628-1.532,1.609c0.054,0.864,0.635,1.384,1.552,1.393
	C563.603,56.582,564.699,56.574,565.794,56.576z"/>
<path fill="#42454C" d="M552.535,84.783c0-2.02,0-3.864,0-5.833c8.819,0,17.578,0,26.525,0c0.396,1.891,0.187,3.842,0.154,5.833
	C570.238,84.783,561.44,84.783,552.535,84.783z"/>
<path fill="#42454C" d="M587.494,76.116c-2.071-0.001-4.143,0.013-6.214-0.008c-0.678-0.007-1.521,0.221-1.813-0.7
	c-0.258-0.813,0.505-1.129,0.962-1.509c4.023-3.346,8.871-3.917,13.842-4.055c0.707-0.02,1.064,0.401,1.229,1.009
	c0.253,0.931,0.574,1.862,0.675,2.813c0.169,1.602-0.4,2.571-2.274,2.476C591.77,76.034,589.63,76.117,587.494,76.116z"/>
<path fill="#42454C" d="M543.96,76.109c-2.202,0-4.404-0.034-6.604,0.013c-1.344,0.029-1.893-0.594-1.825-1.877
	c0.031-0.581,0.009-1.172,0.106-1.742c0.412-2.427,0.836-2.794,3.319-2.623c4.229,0.292,8.377,0.925,11.827,3.691
	c0.604,0.484,1.726,0.839,1.407,1.854c-0.324,1.03-1.412,0.67-2.208,0.683c-2.007,0.033-4.014,0.011-6.022,0.011
	C543.96,76.115,543.96,76.112,543.96,76.109z"/>
<path fill="#42454C" d="M589.838,84.23c-0.983-0.103-2.107-0.694-2.091-2.266c0.015-1.431,0.806-2.432,2.365-2.504
	c1.361-0.064,2.679,1.178,2.662,2.426C592.755,83.239,591.679,84.255,589.838,84.23z"/>
<path fill="#42454C" d="M541.449,79.436c1.507,0.132,2.404,0.91,2.356,2.464c-0.048,1.531-0.918,2.344-2.476,2.298
	c-1.467-0.043-2.254-0.84-2.257-2.302C539.069,80.352,539.911,79.55,541.449,79.436z"/>
<path fill="#9A59B5" d="M565.794,56.575c-1.095-0.001-2.191,0.007-3.286-0.004c-0.917-0.009-1.499-0.529-1.552-1.393
	c-0.061-0.981,0.546-1.59,1.532-1.609c2.19-0.042,4.381-0.027,6.572-0.011c0.973,0.007,1.619,0.459,1.621,1.501
	c0.002,1.031-0.607,1.505-1.6,1.515C567.985,56.584,566.89,56.576,565.794,56.575z"/>
<g>
	<g>
		<g>
			<g>
				<path fill="#E64C3C" stroke="#2C3E50" stroke-width="0.5" stroke-miterlimit="10" d="M103.167,62.5l32.688-28.416
					c1.695,1.95,3.107,3.894,4.438,6.108L103.167,62.5z"/>
			</g>
		</g>
		<g>
			<g>
				<path fill="#2C3E50" stroke="#2C3E50" stroke-width="0.5" stroke-miterlimit="10" d="M103.167,62.5l37.126-22.308
					c12.32,20.504,5.686,47.114-14.818,59.434s-47.114,5.686-59.434-14.818s-5.686-47.114,14.818-59.434
					c18.29-10.99,40.997-7.393,54.996,8.711L103.167,62.5z"/>
			</g>
		</g>
	</g>
	<g>
		<g>
		</g>
		<g>
		</g>
	</g>
</g>
</svg>
