<?xml version="1.0" encoding="utf-8"?>
<!-- Generator: Adobe Illustrator 17.0.0, SVG Export Plug-In . SVG Version: 6.00 Build 0)  -->
<!DOCTYPE svg PUBLIC "-//W3C//DTD SVG 1.1//EN" "http://www.w3.org/Graphics/SVG/1.1/DTD/svg11.dtd">
<svg version="1.1" id="Layer_1" xmlns="http://www.w3.org/2000/svg" xmlns:xlink="http://www.w3.org/1999/xlink" x="0px" y="0px"
	 width="71.417px" height="96.867px" viewBox="0 0 71.417 96.867" enable-background="new 0 0 71.417 96.867" xml:space="preserve">
<path fill="#603120" d="M11.96,60.213c0.31,2.468,0.216,6.254-0.278,6.163c-3.441-0.638-5.115-1.754-6.203-3.871
	c-1.13-2.197-1.221-5.095-2.285-7.222c-0.925-1.849-1.587-3.886-1.504-5.942c0.046-1.136-0.442-4.032,0.588-4.862
	c1.496-1.206,3.428,2.044,3.909,3.218c0.202,0.494,3.149,4.275,3.275,4.279c-0.12-0.382,0.459,1.884,0.796,2.384
	C10.758,55.105,11.697,58.123,11.96,60.213z"/>
<path fill="#E3C7B6" d="M68.997,50.696c-0.688-0.455-1.207-0.662-1.599-0.697c1.174-6.75-4.565-24.117-4.983-25.329
	c-0.265-0.768-0.404-1.58-0.799-2.306c-0.433-0.794-0.961-1.541-1.716-2.012c-6.529-4.068-24.734-4.137-29.193-3.412
	c-3.314,0.539-8.228,2.781-8.431,2.908c-6.361,3.97-8.084,19.425-8.447,20.001c-0.681,1.082-1.437,2.108-2.155,3.163
	c-0.28,0.411-2.388,9.262-2.316,9.404c0.212,0.36,0.795,3.894,1.15,4.03c0.207,0.079,1.327,4.821,1.742,7.275
	c0.004,0.025,0.007,0.049,0.011,0.074c-0.518-0.991-1.173-2.012-1.547-2.834c-0.498-1.096-1.712-1.393-2.387-2.326
	c-0.691-0.9,1.08-3.221,0.907-3.956c-0.604-2.572-2.467-4.223-3.995-6.21c-0.896-1.165-2.641-3.541-2.853-0.403
	c-0.216,3.197,1.178,7.098,2.356,9.986c0,1.207,0.655,3.778,1.307,4.824c0.543,0.871,5.727,4.671,6.727,4.657
	c-0.113,0.001,3.82,11.178,4.164,12.187c1.366,4.019,3.362,6.839,6.217,10.008c2.911,3.231,5.163,5.56,9.437,6.475
	c8.251,1.766,15.61,0.169,20.876-6.757c2.564-3.372,4.274-6.307,5.684-10.274c0.866-2.436,5.276-8.844,4.618-11.349
	c0.07,0.266,0.513,0.914,1.106,0.635c0.546-0.257,1.569-1.395,2.127-3.706c0.4-1.655,1.397-5.963,1.604-6.827
	C69.152,55.663,69.936,51.508,68.997,50.696z"/>
<path fill="#603120" d="M66.065,58.135c-0.837-2.302-2.093-2.232-0.586-2.407c0.048-0.076-1.782,11.488-1.507,11.615
	c4.883,2.232,4.845-17.609,4.813-17.543c1.357-2.789,0.766,4.381,0.279,8.126c-0.499,3.837-1.689,9.685-5.404,11.845
	c-0.911,0.53,1.357-9.293,0.862-9.491C64.391,60.227,66.344,59.6,66.065,58.135z"/>
<path fill="#410604" d="M49.196,51.196c0.42-0.209,1.058-0.207,0.718-0.438c-0.53-0.36-0.939-0.747-0.772-1.358
	c0.059-0.215-0.403-0.429-0.862-0.416c0.762-0.455,1.755-0.545,2.544-0.577c1.251-0.051,2.408,0.25,3.584,0.468
	c0.864,0.316,1.377,0.623,2.079,1.064c0.191,0.12,0.48,0.292,0.421,0.486c-0.056,0.184-1.221-0.494-1.716-0.762
	c-0.112-0.061-0.872-0.294-1.005-0.328c-0.71-0.181-0.669,0.292-0.725,0.677c-0.057,0.392-0.913,0.876,0.2,1.121
	c-0.048,0.008-0.516,0.006-0.563,0.016C52.034,51.372,50.335,51.313,49.196,51.196z"/>
<path fill="#410604" d="M28.46,49.629c-0.408-0.234-1.046-0.265-0.693-0.481c0.548-0.335,0.977-0.705,0.844-1.331
	c-0.047-0.22,0.425-0.412,0.883-0.374c-0.737-0.501-1.723-0.644-2.51-0.718c-1.246-0.118-2.418,0.124-3.604,0.282
	c-0.88,0.273-1.409,0.556-2.133,0.964c-0.197,0.111-0.495,0.269-0.446,0.469c0.046,0.189,1.246-0.434,1.754-0.679
	c0.115-0.056,0.887-0.251,1.021-0.278c0.719-0.146,0.652,0.331,0.688,0.723c0.036,0.399,0.865,0.934-0.26,1.122
	c0.048,0.011,0.515,0.033,0.562,0.046C25.616,49.656,27.316,49.687,28.46,49.629z"/>
<path fill="#B26A51" d="M50.601,74.532c-0.911-0.329-2.426-0.396-3.369-0.529c-0.695-0.181-1.914-0.195-2.616-0.244
	c-1.434-0.069-2.786-0.087-4.22-0.035c-1.164,0.001-2.182,0.135-3.354-0.039c-1.145-0.17-2.503-0.36-3.621-0.345
	c-2.456,0.033-4.593,0.023-7.049,0.058c-0.165,0.002-0.371-0.056-0.386,0.217l0,0c-0.04,0.28,0.056,0.516,0.232,0.727
	c0.103,0.236,2.112,2.101,2.993,2.558c2.621,1.358,5.275,1.701,8.135,1.925c2.427,0.191,5.073,0.164,7.445-0.499
	C46.921,77.733,51.119,74.719,50.601,74.532z"/>
<path fill="#603120" d="M71.404,33.521c0.448-19.998-10.56-32.455-33.988-33.466C26.172-0.431,13.623,2.273,6.119,11.258
	c-3.727,4.463-5.749,9.931-6.116,15.71c-0.108,1.705,2.401,17.81,2.62,17.69C2.265,44.853,4.14,45.23,6.04,47.771
	c2.118,2.833,4.317,7.847,4.54,7.807c0.245-0.117,0.506-2.81,0.524-3.942c0.013-0.822,0.069-1.674,0.242-2.475
	c0.138-0.636,0.008-2.951,0.021-3.171c0.017-0.278,1.085-2.254,1.337-2.712c1.535-2.79,1.395-5.162,3.036-11.883
	c1.571-6.434,5.018-11.416,12.201-12.921c9.507-1.992,17.035,4.041,20.093,12.628c3.838-3.795-8.267-12.516-4.866-13.343
	c6.302-2.646,6.195,7.954,5.887,8.021c2.269-0.511,1.732-6.357,3.281,1.037c0.259,1.235,0.391,3.212-0.008,4.426
	c-0.645,1.931-2.984,3.123-3.642,4.936c1.214,0.442,1.992-0.625,2.854-1.454c1.466-1.409,2.566-3.295,3.139-5.244
	c0.73-2.49,0.79-6.811-0.58-9.063c0.598,0.984,4.96,1.239,6.209,2.592c1.432,1.552,1.652,3.599,1.8,5.61
	c0.162,2.21,0.75,4.375,1.146,6.569c0.521,2.884,1.744,5.997,1.792,8.872c0.11,6.471,4.244,8.952,3.896,6.387
	c2.159,0.152,1.208-5.803,1.522-7.63C71.025,39.564,71.338,36.461,71.404,33.521z"/>
<path opacity="0.6" fill="#DA947E" enable-background="new    " d="M48.692,74.761c0.288,0.053,1.007-0.079,1.295-0.025
	c-0.663,2.023-6.871,3.767-11.16,3.871c-3.698,0.09-10.044-1.325-12.52-4.638c4.359,1.151,7.384,1.673,11.08,2.04
	C39.539,76.222,47.26,76.763,48.692,74.761C48.988,74.762,48.384,75.192,48.692,74.761z"/>
<path opacity="0.6" fill="#DA947E" enable-background="new    " d="M26.296,73.729c4.51-0.214,10.777,0.495,13.113,0.4
	c2.756-0.112,7.894,0.12,9.672,0.537C45.942,76.863,31.119,75.154,26.296,73.729C26.521,73.796,26.374,73.762,26.296,73.729z"/>
<path fill="#F5F1EE" d="M51.178,49.537c0.246,0.053,0.513,0.136,0.534,0.489c0.019,0.32-0.21,0.43-0.467,0.45
	c-0.325,0.025-0.466-0.179-0.479-0.486C50.755,49.727,50.836,49.542,51.178,49.537z"/>
<path fill="#F0EDEC" d="M26.516,49.136c-0.466-0.529-0.487-0.751-0.111-1.168c0.315,0.041,0.746-0.094,0.747,0.447
	C27.153,48.827,27.03,49.162,26.516,49.136z"/>
<path fill="#603120" d="M34.792,94.244c-4.545-0.972-7.544-7.359-7.017-7.474c0.419-0.091,2.955,6.603,9.398,6.788
	c9.11,0.262,11.008-6.607,11.368-6.583c0.649,0.043-2.079,6.888-9.155,7.574C37.409,94.742,34.793,94.239,34.792,94.244z"/>
<path fill="#603120" d="M18.702,46.844c3.231-1.825,6.22-2.463,11.492-1.862c1.589,0.181,4.177,3.375,2.869-0.204
	c-1.235-3.379-8.287-2.149-10.795-1.462C17.3,44.676,18.37,47.031,18.702,46.844z"/>
<path fill="#603120" d="M61.156,48.671c-3.077-2.074-6.007-2.946-11.31-2.761c-1.598,0.056-4.43,3.035-2.844-0.43
	c1.498-3.272,8.431-1.49,10.877-0.607C62.725,46.62,61.472,48.884,61.156,48.671z"/>
<path fill="#4F2907" d="M69.66,48.795c-0.815-0.109-6.368,0.841-7.106,0.736c-0.125-0.018-0.28-0.049-0.357-0.121
	c-0.839-0.783-1.92-1.234-3.069-1.576c-3.155-0.941-6.389-1.224-9.668-0.836c-1.902,0.225-3.721,0.657-4.904,1.953
	c-0.471-0.295-0.905-0.65-1.419-0.872c-1.335-0.578-2.773-0.706-4.24-0.588c-1.071,0.087-2.086,0.289-2.846,1.034
	c-0.94-1.335-2.43-1.996-4.063-2.437c-1.06-0.286-2.161-0.489-3.258-0.641c-2.383-0.33-4.761-0.285-7.107,0.135
	c-1.155,0.207-2.267,0.51-3.175,1.178c-0.087,0.064-0.241,0.087-0.366,0.09c-0.645,0.015-1.292,0.023-1.938,0.02
	c-0.254-0.001-6.694-0.795-6.719-0.551c-0.024,0.239-0.083,0.475-0.139,0.71c-0.059,0.248,6.292,1.306,6.514,1.472
	c0.315,0.236,0.645,0.461,0.989,0.667c0.134,0.08,0.21,0.124,0.178,0.277c-0.229,1.09-0.277,2.192-0.158,3.3
	c0.148,1.388,0.545,2.72,1.459,3.921c0.292,0.383,0.648,0.733,0.992,1.117c-0.002,0.033,1.718,1.002,1.713,1.015
	c0.377,0.128,0.713,0.258,1.061,0.358c1.828,0.522,3.703,0.592,5.592,0.473c1.575-0.099,3.01-0.531,4.29-1.281
	c2.141-1.254,3.473-2.997,4.231-5.063c0.231-0.63,0.353-1.29,0.526-1.943c0.05-0.004,0.077-1.155,0.099-1.315
	c0.013-0.092,0.006-0.185,0.007-0.278c0.012-0.677,0.2-0.935,0.973-1.142c1.708-0.458,3.401-0.36,5.039,0.308
	c0.838,0.342,1.095,0.938,0.762,1.642c-0.025,0.052-0.023,1.21,0.023,1.224c0.008,0.07,0.025,0.144,0.025,0.217
	c0.001,1.474,0.421,2.877,1.158,4.221c0.889,1.621,2.162,2.985,4.022,3.915c2.36,1.18,4.938,1.389,7.578,1.226
	c0.623-0.038,4.865-0.848,6.421-4.797c0.463-1.352,0.643-2.737,0.545-4.15c-0.016-0.227,0.011-0.366,0.32-0.477
	c0.395-0.142,0.731-0.396,1.082-0.612c0.071-0.044,4.948-1.182,4.949-1.254C69.683,49.646,69.668,49.224,69.66,48.795z
	 M31.723,57.342c-1.242,0.879-2.734,1.331-4.382,1.413c-1.506,0.075-3.01,0.049-4.482-0.313c-2.427-0.597-3.933-1.949-4.599-3.964
	c-0.576-1.745-0.565-3.492-0.162-5.243c0.306-1.33,1.198-2.176,2.773-2.569c1.951-0.487,3.945-0.585,5.292-0.536
	c2.563,0.122,4.416,0.369,6.168,1.001c0.652,0.235,1.276,0.555,1.854,0.904c0.864,0.523,1.268,1.285,1.317,2.15
	C35.67,53.111,34.343,55.487,31.723,57.342z M61.107,57.654c-1.029,1.797-2.854,2.698-5.218,2.859
	c-1.532,0.104-3.053-0.055-4.544-0.394c-1.592-0.362-2.927-1.097-4.002-2.143c-1.796-1.747-2.631-3.789-2.676-6.045
	c-0.01-0.494,0.091-0.999,0.234-1.478c0.356-1.196,1.418-1.816,2.738-2.19c1.833-0.52,3.738-0.595,5.667-0.508
	c0.201,0.009,0.401,0.024,0.602,0.036c1.945,0.152,3.855,0.447,5.651,1.142c0.505,0.195,0.989,0.449,1.434,0.73
	c0.533,0.337,0.872,0.8,1.016,1.354C62.609,53.331,62.309,55.555,61.107,57.654z"/>
<path fill="#603120" d="M35.371,66.148c-0.889,0.03-1.705-0.14-2.291-0.862c-0.428-0.528-0.32-1.149-0.176-1.734
	c0.196-0.792,0.665-1.411,1.262-1.982c0.792-0.758,1.285-1.739,1.699-2.751c0.708-1.73,0.985-3.568,1.332-5.387
	c0.093-0.488,0.177-0.979,0.272-1.467c0.036-0.182,0.092-0.36,0.139-0.54c0.042,0.009,0.084,0.019,0.125,0.028
	c-0.059,0.556-0.12,1.113-0.178,1.669c-0.227,2.181-0.535,4.361-1.472,6.357c-0.523,1.115-1.356,2.081-2,3.144
	c-0.289,0.478-0.565,1.012-0.652,1.553c-0.099,0.61,0.217,1.132,0.827,1.414C34.636,65.765,35.001,65.961,35.371,66.148z"/>
<path fill="#603120" d="M42.729,51.929c0,0.886-0.011,1.773,0.002,2.659c0.026,1.672-0.006,3.357,0.43,4.985
	c0.228,0.849,0.613,1.658,0.96,2.471c0.253,0.594,0.611,1.147,0.831,1.751c0.299,0.821,0.357,1.664-0.272,2.388
	c-0.493,0.568-1.575,0.791-2.604,0.524c0.329-0.061,0.549-0.101,0.768-0.144c1.419-0.273,2.001-1.287,1.497-2.637
	c-0.163-0.436-0.338-0.874-0.566-1.279c-0.964-1.713-1.351-3.581-1.382-5.511c-0.026-1.668,0.098-3.339,0.159-5.008
	c0.002-0.068,0.037-0.135,0.057-0.202C42.65,51.928,42.69,51.928,42.729,51.929z"/>
<path fill="#603120" d="M34.312,65.096c0.36-0.45,0.912-0.6,1.471-0.284c0.462,0.261,0.839,0.67,1.261,1.004
	c0.337,0.267,0.662,0.559,1.031,0.77c0.829,0.476,1.584,0.198,2.324-0.279c0.551-0.355,1.109-0.726,1.714-0.963
	c0.618-0.242,1.153-0.001,1.446,0.486c-0.457,0.079-0.926,0.108-1.36,0.246c-0.629,0.199-1.245,0.449-1.844,0.726
	c-1.029,0.477-2.017,0.4-2.978-0.153c-0.651-0.375-1.272-0.805-1.932-1.162C35.108,65.306,34.713,65.231,34.312,65.096z"/>
</svg>
