<?xml version="1.0" encoding="utf-8"?>
<!-- Generator: Adobe Illustrator 17.0.0, SVG Export Plug-In . SVG Version: 6.00 Build 0)  -->
<!DOCTYPE svg PUBLIC "-//W3C//DTD SVG 1.1//EN" "http://www.w3.org/Graphics/SVG/1.1/DTD/svg11.dtd">
<svg version="1.1" id="Layer_1" xmlns="http://www.w3.org/2000/svg" xmlns:xlink="http://www.w3.org/1999/xlink" x="0px" y="0px"
	 width="73.203px" height="100.898px" viewBox="0 0 73.203 100.898" enable-background="new 0 0 73.203 100.898"
	 xml:space="preserve">
<path d="M72.526,45.063c-1.303-5.105-4.645-0.76-4.966,1.695c0.003,0.038,0.006,0.069,0.009,0.094
	c0.048,0.496,0.7,8.592,0.577,9.333c-0.044,0.265-0.266,9.502,0.687,10.201c1.358-0.546,1.972-3.667,2.413-5.003
	c0.855-2.588,1.697-5.651,1.884-8.369C73.31,50.407,73.173,47.596,72.526,45.063z"/>
<path fill="#E3C7B6" d="M71.256,44.132c-1.028-1.352-2.168,0.481-2.26,1.393c-0.102,1.018-0.532,2.468-0.285,3.453
	c0.079,0.314,0.189,2.792,0.303,2.895c0.27,0.442,0.084,2.082-0.149,2.858c-0.606-3.431-1.292-7.293-1.581-7.57
	c-0.06-0.018-2.336-8.278-2.628-9.104c-0.292-0.825-1.703-6.864-1.988-8.327c-0.232-1.19-0.19-2.666-0.5-4.167
	c-0.331-1.604-3.061-6.919-3.188-7.009c-0.059,0.004-0.738-0.895-0.771-0.913c-0.039-0.062-3.566-1.96-4.087-2.034
	c-1.02-0.145-2.029,0.022-3.043-0.019c-0.692-0.028-29.509,0.504-31.738,0.855c-1.224,0.234-4.928,1.794-6.727,3.497
	c-2.049,2.001-4.891,28.523-5.316,33.707c-0.896-0.411-1.626-0.824-1.579-1.243c0.009-0.083-0.041-0.182-0.087-0.259
	c-0.597-0.984-1.221-1.947-2.22-2.583c-0.295-0.188-0.612-0.366-0.983-0.303c-0.383,0.064-1.147,2.334-1.463,3.175
	c-1.146,3.045,2.252,9.714,3.07,11.778c-0.004,0.044-0.231,0.088-0.233,0.134c0.099,0.373,0.271,0.778,0.473,1.128
	c0.183,0.204,1.495,2.063,1.686,2.268c0.964,1.039,2.201,2.342,3.523,2.706c3.276,0.93,5.014,8.661,6.011,11.317
	c4.854,12.938,15.471,19.415,29.327,19.124c4.753,0,10.377-5.384,11.689-6.635c5.227-4.98,8.613-11.509,10.635-18.379
	c0.928-3.153,1.504-6.371,2.14-9.591c0.232-1.173,1.802-5.125,1.279-6.239c0.661-1.912,1.237-3.879,1.32-4.604
	c0.599,0,0.49-6.211,0.492-6.191C72.377,49.227,71.948,45.042,71.256,44.132z"/>
<path d="M70.22,42.706c0.52-0.817-0.725-6.441-1.01-7.692c-0.921-4.033-1.695-8.1-2.891-12.065
	c-2.556-8.47-4.606-15.277-13.566-19.838C40.528-3.112,15.327,0.397,6.076,10.115c-9.142,9.603-7.058,33.527,0.232,43.623
	C6.123,53.482,9.082,56,9.145,51.015c0.024-1.942-0.355-4.011-0.182-5.937c0.18-2.002,0.933-2.363,0.671-4.759
	c-0.577-5.275,1.331-15.173,1.331-15.173c1.298-5.117,3.886-7.567,8.501-8.661c2.398-0.568,5.889,0.808,8.313,0.631
	c0.334-0.302,5.92,1.362,6.365,1.49c0.389,0.112,4.87,1.265,7.107,0.963c2.293-0.433,3.867-2.31,5.711-3.101
	c4.099-1.758,10.343-0.251,12.536,3.874c3.487,6.561,3.273,13.929,5.471,20.71c0.269,0.829,1.024,7.096,2.364,6.398
	c0.413-0.477,1.756-3.675,1.669-3.736C68.821,43.588,70.025,43.012,70.22,42.706z"/>
<path d="M6.644,57.53c-0.46,1.311-0.2,3.335,0.28,4.371c0.085,0.133,3.51,3.617,1.857,3.679c-0.189,0.007-2.239-2.064-2.625-2.354
	c-1.806-0.876-2.679-2.171-1.191-4.182c1.385-1.872,0.908-2.572,0.791-4.675c-0.039-0.71-2.372-6.713-3.483-4.654
	c-2.189,4.057-0.952,8.246,0.763,12.265c0.611,2.075,2.279,3.9,3.078,5.243c1.178,1.052,3.425,2.84,4.711,4.585
	c-2.743-0.982-5.786-4.84-7.301-7.509c-1.481-2.608-1.854-3.516-2.586-6.409c-0.215-0.849-0.777-4.613,0.164-7.543
	C2.578,45.75,7.145,50.819,6.644,57.53z"/>
<path fill="#D55B35" d="M53.967,74.483c0.509,1.067-0.113,2.079-0.658,2.987c-0.275,0.458-3.384,4.428-4.632,4.858
	c-1.203,0.415-2.506,0.751-3.768,0.911c-2.494,0.315-5.146,0.341-7.584-0.278c-1.127-0.286-5.044-2.72-5.744-3.547
	c-0.659-0.779-1.357-1.429-2.248-1.933c-0.337-0.19-0.556-0.542-0.555-0.932c0.002-0.835,0.556-0.618,1.182-0.748
	c1.496-0.31,7.099-0.971,8.547-0.964c2.579,0.012,5.039-0.22,7.595-0.579C47.526,74.059,53.302,73.617,53.967,74.483
	C54.359,75.306,53.877,74.366,53.967,74.483z"/>
<path fill="#FFFFFF" d="M41.627,81.451c-1.393,0-2.674-0.146-3.808-0.434c-0.801-0.238-4.102-2.273-4.717-2.911
	c-0.201-0.238-0.403-0.46-0.605-0.669c2.146-0.285,5.063-0.595,5.989-0.595h0.216c2.361,0,4.73-0.185,7.679-0.599
	c0.676-0.095,2.668-0.272,4.424-0.272c0.423,0,0.767,0.01,1.045,0.026c-0.083,0.146-0.169,0.289-0.238,0.405l-0.01,0.016
	c-0.534,0.803-2.86,3.567-3.645,4.036c-1.152,0.393-2.291,0.667-3.299,0.794C43.596,81.383,42.576,81.451,41.627,81.451z"/>
<path d="M28.449,43.857c2.673-0.446,3.948-0.046,5.013,1.782c1.119,1.922-11.851-0.253-15.595,2.562
	C17.646,46.321,21.654,44.525,28.449,43.857z"/>
<path d="M61.275,43.438c-4.199,1.199-13.63,2.313-15.504,1.731c-1.196-0.371,2.637-2.718,3.31-2.742
	C50.144,42.162,65.061,42.356,61.275,43.438z"/>
<path d="M49.69,49.932c0.442-0.291,1.122-0.306,0.754-0.604c-0.572-0.464-1.016-0.969-0.853-1.788
	c0.058-0.288-0.439-0.56-0.927-0.53c0.801-0.628,1.855-0.776,2.695-0.841c1.33-0.103,2.568,0.264,3.825,0.522
	c0.927,0.396,1.48,0.791,2.237,1.358c0.206,0.155,0.517,0.375,0.459,0.636c-0.055,0.247-1.311-0.623-1.844-0.967
	c-0.121-0.078-0.935-0.367-1.077-0.408c-0.76-0.222-0.705,0.408-0.756,0.923c-0.051,0.524-0.952,1.193,0.239,1.489
	c-0.051,0.012-0.549,0.022-0.599,0.037C52.715,50.086,50.905,50.056,49.69,49.932z"/>
<path d="M39.769,99.446c-4.897-0.711-8.536-7.283-7.984-7.442c0.439-0.126,3.607,6.805,10.464,6.545
	c9.696-0.368,11.226-7.798,11.609-7.798c0.693,0-1.721,7.464-9.188,8.695C42.585,99.79,39.769,99.441,39.769,99.446z"/>
<path d="M28.542,49.909c0.019-1.003,0.184-1.343,0.947-1.3c-2.777-0.802-6.804,0.585-8.303,3.02
	c-0.85,0.823,1.991-1.461,2.325-1.572c0.668-0.316,0.483,1.727,1.615,2.024c-0.953-0.096-1.737-0.089-2.693,0.089
	c1.652,0.08,2.909,0.26,4.493-0.097c1.685-0.38,3.138-1.134,4.775-1.584c-1.209-0.357-2.072,0.585-3.214,0.905
	C28.432,51.359,28.894,50.781,28.542,49.909z"/>
<path fill="#FFFFFF" d="M52.765,48.305c-0.017,0.329-0.615,0.343-0.93,0.358c-0.444,0.021-0.576-0.353-0.646-0.689
	c-0.072-0.349,0.182-0.5,0.493-0.508C52.097,47.454,52.677,47.98,52.765,48.305z"/>
<path fill="#FFFFFF" d="M26.366,49.409c-0.418,0-0.599,0.228-0.605,0.622c-0.008,0.484,0.262,0.654,0.687,0.609
	c0.41,0.021,0.679-0.105,0.685-0.544C27.137,49.692,26.816,49.409,26.366,49.409z"/>
<path d="M37.103,49.445c0.324,3.31,0.64,6.506-0.165,9.638c-0.33,1.284-1.141,2.441-1.689,3.675
	c-0.285,0.644-0.575,1.314-0.681,2.001c-0.131,0.846,0.433,1.496,1.459,1.869c0.471,0.171,0.971,0.262,1.608,0.428
	c-0.287,0.057-0.44,0.118-0.591,0.113c-1.074-0.031-2.147-0.061-2.909-1.014c-0.502-0.628-0.542-1.962-0.172-2.677
	c0.783-1.513,2.003-2.808,2.311-4.56c0.136-0.774,0.339-1.545,0.385-2.325c0.12-2.05,0.17-4.105,0.249-6.158
	c0.009-0.243,0.024-0.487,0.045-0.729C36.955,49.659,37.002,49.615,37.103,49.445z"/>
<path d="M43.573,49.14c0.099,0.305,0.224,0.603,0.291,0.915c0.306,1.409,0.525,2.842,0.912,4.228
	c0.364,1.304,0.797,2.611,1.391,3.822c0.431,0.879,1.166,1.612,1.783,2.396c0.552,0.702,1.177,1.352,1.672,2.09
	c0.258,0.384,0.365,0.902,0.431,1.375c0.128,0.918-0.345,1.621-1.41,2.034c-0.616,0.239-1.29,0.327-1.938,0.483
	c-0.019-0.061-0.038-0.122-0.057-0.182c0.395-0.154,0.79-0.312,1.187-0.461c0.696-0.262,1.105-0.82,1.409-1.445
	c0.101-0.208,0.098-0.572-0.021-0.762c-0.501-0.797-1.035-1.576-1.611-2.321c-0.879-1.137-1.724-2.267-2.312-3.611
	c-0.851-1.947-1.221-3.987-1.546-6.053c-0.129-0.822-0.28-1.64-0.421-2.461C43.412,49.171,43.493,49.156,43.573,49.14z"/>
<path d="M35.849,65.848c0.312-0.161,0.609-0.401,0.94-0.468c0.762-0.155,1.469,0.061,2.145,0.449c0.739,0.425,1.481,0.87,2.273,1.17
	c1.068,0.404,2.016-0.028,2.857-0.695c0.466-0.37,0.889-0.794,1.349-1.172c0.71-0.583,1.518-0.688,2.376-0.405
	c0.158,0.052,0.287,0.189,0.547,0.368c-1.676,0.196-2.931,0.983-4.209,1.756c-1.222,0.739-2.562,0.785-3.898,0.312
	c-1.405-0.497-2.757-1.176-4.313-1.096C35.895,65.993,35.872,65.92,35.849,65.848z"/>
</svg>
